<svg width="294" height="189" viewBox="0 0 294 189" fill="none" xmlns="http://www.w3.org/2000/svg">
<path d="M121.248 185.563C121.575 186.329 121.53 187.073 121.112 187.795C120.783 188.297 120.17 188.559 119.272 188.579L8.16195 184.831C6.82733 184.675 5.93136 184.06 5.47406 182.987L0.770391 171.947C0.313087 170.874 0.490433 169.802 1.30243 168.731L75.5674 86.0012L76.3894 85.3793C77.616 84.8566 78.5233 85.2853 79.1113 86.6653L83.9129 97.935C84.4355 99.1616 84.1815 100.266 83.1509 101.249L20.5378 169.232C19.8138 170.084 20.0098 170.544 21.1258 170.612L113.529 172.547C114.951 172.484 115.924 173.066 116.447 174.293L121.248 185.563Z" fill="#191D23" fill-opacity="0.4"/>
<path d="M149.682 188.394C147.996 189.113 147.023 188.531 146.764 186.648L130.86 8.36548C130.797 6.94286 131.456 5.93757 132.836 5.34961L144.335 0.449949C146.022 -0.268669 146.995 0.313331 147.253 2.19595L163.158 180.479C163.221 181.901 162.562 182.906 161.182 183.494L149.682 188.394Z" fill="#191D23" fill-opacity="0.4"/>
<path d="M217.943 146.81C216.716 147.333 215.809 146.904 215.221 145.524L210.419 134.254C209.896 133.028 210.15 131.923 211.181 130.941L273.794 62.9578C274.518 62.1058 274.322 61.6458 273.206 61.5778L180.803 59.6424C179.381 59.705 178.408 59.123 177.885 57.8964L173.084 46.6267C172.757 45.86 172.758 45.2254 173.088 44.7227C173.505 44.0014 174.162 43.6308 175.06 43.6108L286.17 47.3585C287.505 47.5145 288.401 48.1291 288.858 49.2024L293.562 60.2422C294.019 61.3155 293.842 62.3874 293.03 63.458L218.765 146.188L217.943 146.81Z" fill="#191D23" fill-opacity="0.4"/>
</svg>
