<svg width="667" height="213" viewBox="0 0 667 213" fill="none" xmlns="http://www.w3.org/2000/svg">
<path d="M72.2 212.4C58.2 212.4 45.8 209.6 35 204C24.2 198.4 15.8001 190.6 9.80005 180.6C3.80005 170.4 0.800049 158.6 0.800049 145.2V3C0.800049 1 1.80005 0 3.80005 0H19.1C21.1 0 22.1 1 22.1 3V145.8C22.1 160 26.7 171.6 35.9 180.6C45.1 189.4 57.2 193.8 72.2 193.8C87.2 193.8 99.3 189.4 108.5 180.6C117.7 171.6 122.3 160 122.3 145.8V3C122.3 1 123.3 0 125.3 0H140.6C142.6 0 143.6 1 143.6 3V145.2C143.6 158.6 140.6 170.4 134.6 180.6C128.8 190.6 120.5 198.4 109.7 204C98.9001 209.6 86.4 212.4 72.2 212.4Z" fill="#191D23" fill-opacity="0.4"/>
<path d="M170.731 210C168.731 210 167.731 209 167.731 207V3C167.731 1 168.731 0 170.731 0H186.031C188.031 0 189.031 1 189.031 3V207C189.031 209 188.031 210 186.031 210H170.731Z" fill="#191D23" fill-opacity="0.4"/>
<path d="M229.527 210C227.327 210 226.527 208.9 227.127 206.7L293.427 2.40001C294.027 0.800002 295.227 0 297.027 0H312.027C314.227 0 315.027 1.1 314.427 3.30001L248.127 207.6C247.527 209.2 246.327 210 244.527 210H229.527Z" fill="#191D23" fill-opacity="0.4"/>
<path d="M434.602 212.4C420.602 212.4 408.202 209.6 397.402 204C386.602 198.4 378.202 190.6 372.202 180.6C366.202 170.4 363.202 158.6 363.202 145.2V3C363.202 1 364.202 0 366.202 0H381.502C383.502 0 384.502 1 384.502 3V145.8C384.502 160 389.102 171.6 398.302 180.6C407.502 189.4 419.602 193.8 434.602 193.8C449.602 193.8 461.702 189.4 470.902 180.6C480.102 171.6 484.702 160 484.702 145.8V3C484.702 1 485.702 0 487.702 0H503.002C505.002 0 506.002 1 506.002 3V145.2C506.002 158.6 503.002 170.4 497.002 180.6C491.202 190.6 482.902 198.4 472.102 204C461.302 209.6 448.802 212.4 434.602 212.4Z" fill="#191D23" fill-opacity="0.4"/>
<path d="M515.734 210C514.534 210 513.734 209.7 513.334 209.1C513.134 208.3 513.334 207.4 513.934 206.4L576.934 105.9C577.334 105.3 577.334 104.7 576.934 104.1L513.934 3.60001C513.534 2.80001 513.334 2.20001 513.334 1.80001C513.334 0.600006 514.134 0 515.734 0H532.534C533.934 0 535.134 0.700004 536.134 2.10001L589.534 87.6C589.734 87.8 590.034 87.9 590.434 87.9C590.834 87.9 591.134 87.8 591.334 87.6L644.434 2.10001C645.434 0.700004 646.634 0 648.034 0H664.534C665.734 0 666.434 0.400003 666.634 1.2C667.034 1.80001 666.934 2.60001 666.334 3.60001L603.634 104.4C603.434 105 603.434 105.6 603.634 106.2L666.334 206.4C666.734 207.2 666.934 207.8 666.934 208.2C666.934 209.4 666.134 210 664.534 210H648.034C646.634 210 645.434 209.3 644.434 207.9L591.334 122.7C591.134 122.3 590.834 122.1 590.434 122.1C590.034 122.1 589.734 122.3 589.534 122.7L536.134 207.9C535.134 209.3 533.934 210 532.534 210H515.734Z" fill="#191D23" fill-opacity="0.4"/>
</svg>
