<svg width="73" height="73" viewBox="0 0 73 73" fill="none" xmlns="http://www.w3.org/2000/svg">
<circle cx="4.5625" cy="68.4375" r="4.5625" fill="#191D23"/>
<circle cx="68.4375" cy="4.5625" r="4.5625" transform="rotate(90 68.4375 4.5625)" fill="#191D23"/>
<circle cx="20.5312" cy="68.4375" r="4.5625" fill="#191D23"/>
<circle cx="68.4375" cy="20.5312" r="4.5625" transform="rotate(90 68.4375 20.5312)" fill="#191D23"/>
<circle cx="52.4688" cy="20.5312" r="4.5625" transform="rotate(90 52.4688 20.5312)" fill="#191D23"/>
<circle cx="36.5" cy="68.4375" r="4.5625" fill="#191D23"/>
<circle cx="68.4375" cy="36.5" r="4.5625" transform="rotate(90 68.4375 36.5)" fill="#191D23"/>
<circle cx="52.4688" cy="36.5" r="4.5625" transform="rotate(90 52.4688 36.5)" fill="#191D23"/>
<circle cx="36.5" cy="36.5" r="4.5625" transform="rotate(90 36.5 36.5)" fill="#191D23"/>
<circle cx="52.4688" cy="68.4375" r="4.5625" fill="#191D23"/>
<circle cx="68.4375" cy="52.4688" r="4.5625" transform="rotate(90 68.4375 52.4688)" fill="#191D23"/>
<circle cx="52.4688" cy="52.4688" r="4.5625" transform="rotate(90 52.4688 52.4688)" fill="#191D23"/>
<circle cx="36.5" cy="52.4688" r="4.5625" transform="rotate(90 36.5 52.4688)" fill="#191D23"/>
<circle cx="20.5312" cy="52.4688" r="4.5625" transform="rotate(90 20.5312 52.4688)" fill="#191D23"/>
<circle cx="68.4375" cy="68.4375" r="4.5625" fill="#191D23"/>
</svg>
