<svg width="20" height="20" viewBox="0 0 48 38" fill="none" xmlns="http://www.w3.org/2000/svg">
<path d="M40.8 0H7.2C5.29044 0 3.45909 0.750668 2.10883 2.08686C0.75857 3.42306 0 5.23533 0 7.125V30.875C0 32.7647 0.75857 34.5769 2.10883 35.9131C3.45909 37.2493 5.29044 38 7.2 38H40.8C42.7096 38 44.5409 37.2493 45.8912 35.9131C47.2414 34.5769 48 32.7647 48 30.875V7.125C48 5.23533 47.2414 3.42306 45.8912 2.08686C44.5409 0.750668 42.7096 0 40.8 0V0ZM39.816 4.75L25.704 18.715C25.4809 18.9376 25.2154 19.1143 24.923 19.2349C24.6305 19.3554 24.3168 19.4175 24 19.4175C23.6832 19.4175 23.3695 19.3554 23.077 19.2349C22.7846 19.1143 22.5191 18.9376 22.296 18.715L8.184 4.75H39.816ZM43.2 30.875C43.2 31.5049 42.9471 32.109 42.4971 32.5544C42.047 32.9998 41.4365 33.25 40.8 33.25H7.2C6.56348 33.25 5.95303 32.9998 5.50294 32.5544C5.05286 32.109 4.8 31.5049 4.8 30.875V8.09875L18.912 22.0637C20.262 23.398 22.092 24.1475 24 24.1475C25.908 24.1475 27.738 23.398 29.088 22.0637L43.2 8.09875V30.875Z" fill="#8F8E8D" fill-opacity="0.5"/>
</svg>
