<svg width="30" height="17" viewBox="0 0 30 17" fill="none" xmlns="http://www.w3.org/2000/svg">
<path d="M10.4043 14.3893C10.4043 14.5026 10.3718 14.5836 10.3066 14.6321C10.2415 14.6645 10.1601 14.6564 10.0624 14.6079L0.21981 10.1879C0.0732698 10.1069 0 9.99357 0 9.84786V7.88071C0 7.71881 0.0732698 7.60548 0.21981 7.54071L10.0624 3.12072C10.1275 3.08833 10.1764 3.07214 10.2089 3.07214C10.3392 3.07214 10.4043 3.16119 10.4043 3.33929V5.45214C10.4043 5.59786 10.331 5.71119 10.1845 5.79214L3.07733 8.77929C2.97964 8.82786 2.97964 8.87643 3.07733 8.925L10.1845 11.9364C10.331 12.0012 10.4043 12.1145 10.4043 12.2764V14.3893Z" fill="url(#paint0_linear_298_8)"/>
<path d="M11.0475 17C10.9498 17 10.8765 16.9757 10.8277 16.9271C10.7788 16.8624 10.7707 16.7733 10.8032 16.66L16.7869 0.242857C16.8358 0.0809523 16.9416 0 17.1044 0H19.327C19.4246 0 19.4979 0.032381 19.5468 0.097143C19.5956 0.145715 19.6038 0.226667 19.5712 0.34L13.5875 16.7571C13.5386 16.919 13.4328 17 13.27 17H11.0475Z" fill="url(#paint1_linear_298_8)"/>
<path d="M19.9376 14.4217C19.8725 14.4541 19.8236 14.4703 19.7911 14.4703C19.6608 14.4703 19.5957 14.3812 19.5957 14.2031V12.0903C19.5957 11.9284 19.6689 11.815 19.8155 11.7503L26.9227 8.73886C27.0204 8.69028 27.0204 8.64171 26.9227 8.59314L19.8155 5.606C19.6689 5.52505 19.5957 5.41171 19.5957 5.266V3.15314C19.5957 3.03981 19.6282 2.96695 19.6934 2.93457C19.7585 2.886 19.8399 2.886 19.9376 2.93457L29.7802 7.35457C29.9267 7.41933 30 7.53266 30 7.69457V9.66171C30 9.80743 29.9267 9.92076 29.7802 10.0017L19.9376 14.4217Z" fill="url(#paint2_linear_298_8)"/>
<defs>
<linearGradient id="paint0_linear_298_8" x1="15" y1="0" x2="15" y2="17" gradientUnits="userSpaceOnUse">
<stop stop-color="#FFAC0B"/>
<stop offset="1" stop-color="#D66B00"/>
</linearGradient>
<linearGradient id="paint1_linear_298_8" x1="15" y1="0" x2="15" y2="17" gradientUnits="userSpaceOnUse">
<stop stop-color="#FFAC0B"/>
<stop offset="1" stop-color="#D66B00"/>
</linearGradient>
<linearGradient id="paint2_linear_298_8" x1="15" y1="0" x2="15" y2="17" gradientUnits="userSpaceOnUse">
<stop stop-color="#FFAC0B"/>
<stop offset="1" stop-color="#D66B00"/>
</linearGradient>
</defs>
</svg>
