<svg width="20" height="20" viewBox="0 0 46 45" fill="none" xmlns="http://www.w3.org/2000/svg">
<path d="M42.9147 11.487C40.858 7.95323 38.0682 5.15553 34.5445 3.09327C31.0204 1.03092 27.173 0 22.9998 0C18.8271 0 14.9785 1.03123 11.4551 3.09327C7.9311 5.15542 5.14139 7.95323 3.08467 11.487C1.02826 15.0207 0 18.8795 0 23.0633C0 28.0891 1.4622 32.6083 4.38732 36.6223C7.31213 40.6366 11.0906 43.4143 15.7223 44.9558C16.2614 45.0561 16.6605 44.9855 16.92 44.7458C17.1796 44.5058 17.3093 44.2052 17.3093 43.8452C17.3093 43.7852 17.3042 43.2448 17.2942 42.2236C17.2839 41.2024 17.2791 40.3114 17.2791 39.5513L16.5903 39.6708C16.1511 39.7514 15.597 39.7856 14.9281 39.7759C14.2596 39.7666 13.5655 39.6963 12.8469 39.5657C12.1279 39.4362 11.4592 39.1359 10.8403 38.6654C10.2216 38.1949 9.78244 37.5791 9.52284 36.8188L9.22337 36.1277C9.02376 35.6676 8.7095 35.1565 8.28018 34.5963C7.85086 34.0356 7.41671 33.6555 6.97753 33.4553L6.76785 33.3048C6.62813 33.2047 6.49848 33.0841 6.37859 32.9441C6.25881 32.8041 6.16912 32.664 6.10923 32.5237C6.04923 32.3832 6.09895 32.2681 6.25891 32.1777C6.41887 32.0874 6.70795 32.0435 7.12742 32.0435L7.72614 32.1332C8.12546 32.2135 8.6194 32.4532 9.20858 32.8538C9.79744 33.2542 10.2815 33.7746 10.6609 34.415C11.1203 35.2361 11.6739 35.8617 12.323 36.2922C12.9717 36.7227 13.6257 36.9376 14.2844 36.9376C14.9431 36.9376 15.5121 36.8876 15.9914 36.788C16.4703 36.6878 16.9195 36.5373 17.339 36.3372C17.5187 34.9953 18.0079 33.9644 18.8062 33.2438C17.6683 33.1238 16.6453 32.9432 15.7366 32.7031C14.8285 32.4627 13.89 32.0724 12.9219 31.5314C11.9532 30.991 11.1496 30.32 10.5109 29.5196C9.87213 28.7187 9.34788 27.6673 8.9389 26.3663C8.52972 25.0647 8.32507 23.5633 8.32507 21.8616C8.32507 19.4387 9.11386 17.3768 10.6911 15.675C9.95227 13.8534 10.022 11.8113 10.9006 9.54899C11.4796 9.3686 12.3382 9.50397 13.4761 9.95427C14.6142 10.4048 15.4475 10.7907 15.9767 11.1107C16.506 11.4305 16.9301 11.7016 17.2496 11.9214C19.1067 11.4011 21.0232 11.1409 22.9996 11.1409C24.976 11.1409 26.8929 11.4011 28.7501 11.9214L29.8881 11.201C30.6662 10.7203 31.5852 10.2798 32.6427 9.87938C33.7009 9.47915 34.51 9.36891 35.0693 9.54931C35.9674 11.8117 36.0474 13.8537 35.3083 15.6753C36.8855 17.3772 37.6746 19.4395 37.6746 21.8619C37.6746 23.5636 37.4692 25.0697 37.0607 26.3813C36.6516 27.6931 36.1228 28.7434 35.4742 29.5346C34.8248 30.3257 34.0161 30.9914 33.0479 31.5317C32.0796 32.0723 31.1408 32.4626 30.2326 32.703C29.324 32.9435 28.301 33.1242 27.1632 33.2443C28.201 34.1449 28.72 35.5664 28.72 37.5084V43.8444C28.72 44.2043 28.8448 44.5048 29.0947 44.745C29.3442 44.9847 29.7383 45.0553 30.2774 44.9548C34.9098 43.4136 38.6882 40.6357 41.6129 36.6215C44.5373 32.6075 46 28.0882 46 23.0625C45.999 18.8792 44.9702 15.0207 42.9147 11.487Z" fill="#8F8E8D" fill-opacity="0.5"/>
</svg>
