<svg width="701" height="651" viewBox="0 0 701 651" fill="none" xmlns="http://www.w3.org/2000/svg">
<path d="M582.683 211.952C392.259 -24.8932 74.3907 247.992 71.7068 255.253C-138.752 488.014 227.469 600.639 477.682 630.653C727.895 660.666 760.207 432.754 582.683 211.952Z" fill="url(#paint0_linear_217_2)"/>
<path d="M430.937 230.863C367.186 230.863 315.505 179.183 315.505 115.432C315.505 51.6805 367.186 0 430.937 0C494.688 0 546.369 51.6805 546.369 115.432C546.369 179.183 494.688 230.863 430.937 230.863Z" fill="url(#paint1_linear_217_2)"/>
<path d="M230.417 325.451C166.666 325.451 114.986 273.771 114.986 210.019C114.986 146.268 166.666 94.5877 230.417 94.5877C294.168 94.5877 345.849 146.268 345.849 210.019C345.849 273.771 294.168 325.451 230.417 325.451Z" fill="#FEF6E7"/>
<path d="M429.426 11.7771C508.804 11.7771 573.152 76.1253 573.152 155.503C573.152 234.881 508.804 299.229 429.426 299.229C350.049 299.229 285.7 234.881 285.7 155.503C285.7 76.1253 350.049 11.7771 429.426 11.7771ZM429.426 13.4173C350.955 13.4173 287.341 77.0312 287.341 155.503C287.341 233.975 350.955 297.589 429.426 297.589C507.898 297.589 571.512 233.975 571.512 155.503C571.512 77.0312 507.898 13.4173 429.426 13.4173Z" fill="#F0DECF"/>
<path d="M538.793 318.377L570.609 341.363C574.28 344.016 575.106 349.142 572.454 352.814C570.912 354.948 568.439 356.212 565.806 356.212H109.194C104.664 356.212 100.992 352.54 100.992 348.011C100.992 345.492 102.15 343.113 104.132 341.558L133.685 318.377H538.793Z" fill="url(#paint2_linear_217_2)"/>
<path fill-rule="evenodd" clip-rule="evenodd" d="M420.417 134.085L359.382 139.766C333.181 157.213 318.241 169.266 314.563 175.924C309.046 185.911 312.368 233.709 314.563 255.726L314.227 255.991C310.478 258.981 309.048 261.569 309.939 263.754L309.98 263.851C311.481 267.254 304.984 265.52 303.989 267.518C303.004 269.493 302.298 275.576 298.288 275.71L298.152 275.713C295.398 275.713 252.909 282.456 170.683 295.941V318.87L318.035 319.142C324.841 319.154 331.413 316.674 336.512 312.175L336.726 311.984V318.87L492.095 318.871L493.448 319.297C501.087 321.68 506.625 323.127 508.837 323.127C520.984 323.127 528.635 306.022 525.755 296.814C522.876 287.606 495.407 171.376 485.085 164.971C478.272 160.743 457.077 150.611 421.5 134.573L420.417 134.085Z" fill="#4757A4"/>
<path fill-rule="evenodd" clip-rule="evenodd" d="M418.018 136.376C417.666 136.957 417.853 137.713 418.434 138.065L423.964 141.415L427.002 143.264L431.067 145.752L436.207 148.938L436.296 148.99C436.347 149.019 436.384 149.037 436.427 149.053L436.586 149.108L436.621 149.118L436.661 149.125C436.719 149.133 436.805 149.138 436.987 149.149L437.103 149.137C437.17 149.129 437.219 149.119 437.275 149.098L437.322 149.079L437.723 149.245L438.272 149.483C440.055 150.273 443.088 151.75 447.603 154.045L450.028 155.284C459.288 160.03 464.416 162.778 469.959 166.074C471.906 167.232 473.491 168.501 474.687 169.925C480.415 176.743 484.584 186.133 488.397 199.274L488.74 200.469L489.068 201.636L489.399 202.833C489.924 204.756 490.468 206.829 491.088 209.253L492.889 216.35L493.379 218.25C493.488 218.673 493.595 219.078 493.7 219.478L493.904 220.244L494.124 221.064L494.339 221.854C494.481 222.371 494.62 222.869 494.758 223.353L495.788 226.951L496.638 229.939L497.42 232.7C503.538 254.39 506.479 266.559 508.775 280.695C511.203 295.639 512.042 309.498 511.107 322.923C511.973 322.768 512.812 322.524 513.621 322.204C514.46 309.06 513.633 295.511 511.312 280.971L511.204 280.3C508.692 264.841 505.425 251.752 498.156 226.284L497.226 223.035C496.892 221.871 496.549 220.623 496.18 219.233L495.622 217.098L493.575 209.046C492.504 204.849 491.66 201.691 490.76 198.589L490.502 197.708C486.67 184.723 482.436 175.324 476.571 168.343C475.18 166.686 473.384 165.248 471.216 163.959L470.184 163.349L468.826 162.557C464.194 159.878 459.411 157.334 451.841 153.449L448.726 151.856L446.376 150.668L444.674 149.818C441.592 148.287 439.535 147.323 438.341 146.837L438.091 146.737L437.865 146.649L437.646 146.568C437.3 146.447 437.049 146.388 436.818 146.39L436.769 146.391L434.565 145.02L431.017 142.834L425.754 139.623C423.948 138.526 421.942 137.31 419.707 135.959C419.125 135.608 418.369 135.794 418.018 136.376ZM412.161 141.146C411.791 141.715 411.952 142.477 412.522 142.848L413.272 143.334L414.903 144.384L416.901 145.659C426.011 151.453 440.577 160.507 444.246 162.898L444.58 163.117C447.347 164.949 449.814 166.674 452.199 168.452C458.789 173.366 465.146 179.005 473.163 187.127C475.686 189.683 478.497 195.756 481.359 204.267C483.281 209.982 484.897 215.694 486.541 222.105L486.723 222.82C489.934 235.42 495.451 266.086 496.809 278.471L497.11 281.313L493.093 280.149L488.267 278.769L485.83 278.077L470.206 273.663L464.527 272.046C453.735 268.961 446.929 266.922 439.169 264.443L438.101 264.1L437.228 263.814L436.588 263.599C430.861 261.659 425.746 259.425 416.559 255.058L412.759 253.247L410.675 252.262L409.169 251.556C401.198 247.84 396.179 245.8 390.238 243.97C389.588 243.77 388.9 244.135 388.7 244.784C388.5 245.433 388.864 246.122 389.514 246.322L390.189 246.532L390.883 246.753L391.58 246.98C397.367 248.885 402.72 251.201 411.721 255.478L416.168 257.596C425.818 262.173 430.976 264.377 437.341 266.44L439.064 266.992L441.135 267.648C450.253 270.522 458.825 273.011 475.308 277.662L489.031 281.545L492.195 282.451L495.194 283.318C495.694 283.463 496.199 283.61 496.713 283.76C496.935 283.824 497.159 283.824 497.367 283.769L497.878 288.716L498.344 293.329C498.473 294.621 498.596 295.866 498.713 297.066L493.426 295.203L484.611 292.071L481.487 290.975L479.547 290.303C477.441 289.578 475.605 288.963 473.605 288.31L472.199 287.856L470.978 287.47L469.917 287.141C467.84 286.503 465.574 285.842 462.456 284.956L456.086 283.154C446.854 280.526 442.199 279.044 436.763 276.896L435.337 276.328L434.283 275.904C425.891 272.511 418.422 269.123 404.594 262.562L393.408 257.246C388.96 255.141 385.99 253.758 382.531 252.181C381.912 251.899 381.183 252.172 380.901 252.79C380.619 253.408 380.892 254.138 381.51 254.42L384.869 255.961L387.491 257.181L390.12 258.415C391.556 259.091 393.14 259.841 394.963 260.707L403.489 264.761C418.631 271.945 426.188 275.347 435.643 279.099L436.77 279.541L437.422 279.792L438.288 280.119C442.828 281.817 447.355 283.224 455.081 285.426L462.038 287.395L464.876 288.209L465.906 288.509C468.346 289.223 470.255 289.81 472.317 290.479L474.373 291.152L476.31 291.799L477.296 292.133C479.825 292.993 482.625 293.974 486.58 295.378L496.185 298.788L497.896 299.386C498.252 299.511 498.626 299.462 498.927 299.284L499.27 302.92L499.488 305.314C499.912 310.044 500.2 313.725 500.361 316.436L500.416 317.412L500.452 318.138L500.477 318.719L500.464 318.722C500.419 318.734 500.371 318.75 500.313 318.773L500.101 318.86L499.834 319.112L499.736 319.211C499.598 319.355 499.582 319.413 499.538 319.574L499.496 319.791C499.486 319.849 499.484 319.874 499.485 319.911L499.486 319.941C499.485 319.987 499.487 320.029 499.491 320.075L499.498 320.146C499.506 320.221 499.519 320.321 499.538 320.454L499.652 321.155L500.415 321.369C501.292 321.613 502.116 321.834 502.884 322.031C502.899 321.946 502.911 321.855 502.922 321.758L502.936 321.621L502.948 321.465L502.958 321.29C503.004 320.346 502.963 318.784 502.828 316.476L502.751 315.238C502.321 308.65 501.265 297.257 499.465 280.182L499.295 278.581C497.997 266.331 492.379 235.054 489.108 222.213L488.739 220.776C487.145 214.602 485.564 209.052 483.691 203.483L483.372 202.542L483.045 201.599L482.821 200.965C480.14 193.417 477.514 188.032 474.914 185.399L474.148 184.624L473.378 183.853L472.605 183.082C465.563 176.091 459.717 170.99 453.669 166.48C451.397 164.785 449.054 163.141 446.461 161.413L445.939 161.066C442.35 158.689 421.799 145.949 413.863 140.786C413.294 140.415 412.532 140.576 412.161 141.146ZM470.682 313.967C470.007 314.049 469.527 314.662 469.609 315.336L470.039 318.871H472.518L472.051 315.039C471.969 314.365 471.356 313.885 470.682 313.967ZM459.937 309.642L459.865 309.645C459.187 309.7 458.682 310.293 458.737 310.97L459.372 318.871H461.841L461.189 310.773C461.137 310.12 460.583 309.627 459.937 309.642ZM451.715 308.599L451.643 308.603C450.966 308.658 450.461 309.251 450.516 309.928L451.235 318.871H453.704L452.968 309.731C452.916 309.078 452.362 308.585 451.715 308.599ZM439.987 302.968L439.915 302.972C439.238 303.028 438.734 303.622 438.789 304.299L439.95 318.486C439.961 318.622 439.994 318.752 440.046 318.871H442.307C442.384 318.692 442.419 318.493 442.402 318.285L441.241 304.098C441.188 303.445 440.634 302.953 439.987 302.968ZM415.055 295.352L414.982 295.353C414.304 295.384 413.778 295.959 413.809 296.637L414.81 318.87H417.272L416.267 296.527C416.237 295.872 415.701 295.36 415.055 295.352ZM377.664 283.745C376.985 283.767 376.452 284.335 376.474 285.014L377.533 317.758C377.55 318.271 377.879 318.701 378.331 318.871H379.194C379.675 318.691 380.01 318.22 379.992 317.678L378.934 284.935C378.912 284.28 378.383 283.761 377.737 283.745H377.664ZM425.98 298.21C425.32 298.37 424.914 299.035 425.074 299.696L426.262 304.549L426.339 304.884C426.496 305.573 426.58 306.039 426.639 306.541L426.667 306.809L426.933 310.97L427.046 312.654C427.156 314.256 427.281 315.99 427.411 317.584C427.466 318.261 428.06 318.766 428.737 318.711C429.414 318.655 429.919 318.062 429.864 317.385L429.713 315.452L429.591 313.775C429.33 310.1 429.128 306.68 429.113 306.528L429.083 306.252C429.008 305.616 428.9 305.035 428.701 304.175L428.477 303.244L427.465 299.116C427.305 298.456 426.64 298.05 425.98 298.21ZM387.856 287.393C387.183 287.49 386.717 288.114 386.814 288.786L387.306 292.132L389.173 304.466L389.204 304.695L389.248 305.083L389.278 305.37L389.317 305.78C389.369 306.384 389.411 307.046 389.453 307.926L389.832 317.226C389.861 317.905 390.435 318.431 391.114 318.402C391.793 318.373 392.32 317.799 392.29 317.12L391.945 308.571L391.91 307.796L391.867 306.964L391.84 306.525C391.799 305.89 391.753 305.356 391.694 304.816L391.639 304.338L391.561 303.789L391.316 302.159C390.823 298.906 389.9 292.941 389.249 288.434C389.152 287.762 388.528 287.295 387.856 287.393ZM403.596 291.796L403.523 291.799C402.846 291.844 402.333 292.431 402.378 293.109L403.972 316.949C404.017 317.627 404.603 318.14 405.281 318.095C405.959 318.049 406.472 317.463 406.427 316.785L404.833 292.944C404.789 292.291 404.243 291.791 403.596 291.796ZM374.524 272.817C374.256 273.441 374.544 274.165 375.168 274.433L375.901 274.75L379.081 276.141L386.858 279.609C398.864 284.949 405.25 287.487 412.946 289.713L416.217 290.654C417.597 291.05 419.049 291.464 420.624 291.911L432.761 295.35L438.339 296.942C448.791 299.941 455.284 301.905 462.741 304.336L464.301 304.848L465.877 305.372C477.378 309.215 487.551 313.151 497.122 317.553C497.739 317.837 498.47 317.567 498.754 316.95C499.038 316.332 498.767 315.602 498.15 315.318C487.838 310.576 476.849 306.374 464.291 302.255L462.046 301.524C453.837 298.87 446.436 296.678 433.055 292.876L420.451 289.304L416.274 288.111L414.339 287.554L413.154 287.211L412.467 287.007C405.393 284.893 399.126 282.374 387.802 277.336L379.875 273.801L378.438 273.17L377.254 272.654L376.14 272.173C375.516 271.905 374.793 272.193 374.524 272.817ZM366.658 275.921L366.586 275.923C365.908 275.965 365.392 276.549 365.433 277.227L366.063 287.34L366.137 288.654L366.186 289.634L366.21 290.207C366.229 290.672 366.242 291.109 366.252 291.553L366.265 292.298L366.31 305.296L366.332 309.214C366.342 310.856 366.354 312.493 366.367 314.061C366.373 314.74 366.929 315.286 367.608 315.28C368.288 315.274 368.834 314.719 368.828 314.039L368.769 305.124C368.737 298.355 368.729 292.435 368.725 292.159L368.708 291.335L368.691 290.743L368.661 289.93C368.641 289.441 368.615 288.918 368.583 288.324L368.442 285.951L367.889 277.076C367.849 276.422 367.305 275.919 366.658 275.921ZM294.545 281.464C294.136 282.006 294.244 282.777 294.787 283.186L295.324 283.594L295.682 283.869L296.213 284.282C301.256 288.234 305.477 292.411 312.965 300.5L316.825 304.681L318.144 306.101C321.506 309.706 323.698 311.949 326.289 314.415C326.781 314.883 327.56 314.864 328.029 314.372C328.497 313.88 328.478 313.101 327.986 312.633L327.137 311.819L326.404 311.106L325.966 310.675C323.729 308.463 321.462 306.074 317.991 302.319L314.76 298.817C306.487 289.88 302.132 285.641 296.268 281.221C295.725 280.813 294.954 280.921 294.545 281.464ZM283.694 306.516C283.558 307.182 283.988 307.832 284.653 307.967C287.06 308.458 288.973 309.386 291.316 311.069L291.669 311.326L292.221 311.743L293.603 312.806C294.506 313.505 295.384 314.188 295.591 314.345C296.133 314.756 296.905 314.65 297.315 314.108C297.725 313.567 297.619 312.795 297.078 312.385L293.988 309.997L293.262 309.445L293.003 309.253C290.288 307.269 288.022 306.143 285.145 305.557C284.479 305.421 283.83 305.85 283.694 306.516ZM277.098 284.204C276.823 284.825 277.104 285.552 277.725 285.827C296.249 294.025 307.802 301.801 317.487 313.876C317.912 314.406 318.687 314.491 319.217 314.065C319.747 313.64 319.832 312.866 319.407 312.336C309.435 299.904 297.574 291.921 278.721 283.577C278.099 283.302 277.373 283.583 277.098 284.204ZM281.782 298.696C281.583 299.346 281.948 300.034 282.598 300.233C287.817 301.832 292.384 304.098 297.924 307.632L298.719 308.144L299.405 308.592L300.117 309.062C300.684 309.438 301.283 309.839 301.935 310.28L306.231 313.206C306.792 313.589 307.557 313.443 307.94 312.881C308.322 312.32 308.176 311.554 307.615 311.172L303.577 308.421L302.752 307.863L301.646 307.123L300.759 306.538C300.375 306.286 300.002 306.043 299.634 305.806L298.872 305.32C293.325 301.81 288.657 299.516 283.319 297.881C282.669 297.682 281.981 298.047 281.782 298.696ZM343.129 273.738C342.45 273.76 341.916 274.328 341.938 275.007L343.098 311.859C343.119 312.538 343.687 313.071 344.366 313.05C345.045 313.028 345.578 312.461 345.557 311.781L344.397 274.929C344.376 274.275 343.848 273.755 343.201 273.738H343.129ZM355.36 274.478C354.681 274.495 354.143 275.059 354.159 275.738L354.983 310.675C354.999 311.354 355.563 311.892 356.242 311.877C356.922 311.859 357.459 311.296 357.443 310.617L356.619 275.68C356.603 275.001 356.039 274.463 355.36 274.478ZM380.145 262.371C379.904 263.006 380.224 263.716 380.86 263.957L382.687 264.652C393.703 268.868 403.659 273.106 420.821 280.727L431.11 285.302L433.731 286.463L435.393 287.196L437.788 288.249C463.307 299.438 479.43 305.597 498.029 310.745C498.683 310.926 499.361 310.542 499.542 309.887C499.724 309.232 499.34 308.555 498.685 308.373C479.263 302.998 462.527 296.498 434.72 284.21L419.59 277.489L415.228 275.562L412.887 274.533C400.04 268.897 391.464 265.34 381.731 261.656C381.095 261.415 380.385 261.735 380.145 262.371ZM307.801 270.475C307.162 270.708 306.834 271.414 307.067 272.052L308.294 275.493L308.385 275.74C308.749 276.701 309.083 277.448 309.489 278.181C310.33 279.693 311.503 281.155 313.548 283.237L313.704 283.392C314.276 283.944 314.852 284.331 315.93 284.946L316.662 285.361L317.036 285.58C317.808 286.041 318.204 286.35 318.565 286.769L318.704 286.934L318.844 287.105L318.979 287.277C319.56 288.032 320.063 288.888 320.88 290.429L321.376 291.368L321.659 291.893L321.86 292.261C322.413 293.261 322.827 293.914 323.356 294.614L323.721 295.09L324.428 296.005L324.975 296.704C327.495 299.906 328.912 301.407 329.945 301.837L330.009 301.862L331.267 304.431C331.568 305.04 332.306 305.29 332.915 304.989C333.524 304.688 333.774 303.95 333.473 303.341L332.031 300.404L331.938 300.222C331.85 300.063 331.778 299.952 331.668 299.833C331.417 299.562 331.06 299.385 330.663 299.41L330.63 299.413L330.506 299.305L330.377 299.187L330.234 299.049L330.076 298.891L329.867 298.675L329.624 298.416L329.447 298.221C328.507 297.18 327.218 295.603 325.532 293.409L325.256 293.047C324.731 292.34 324.308 291.633 323.619 290.345L322.946 289.073L322.651 288.525L322.443 288.147C321.734 286.871 321.217 286.092 320.513 285.262L320.429 285.164C319.739 284.363 319.081 283.902 317.637 283.084L317.182 282.827L316.921 282.678L316.66 282.523C316.042 282.154 315.686 281.892 315.357 281.567L315.303 281.513C313.401 279.576 312.357 278.275 311.64 276.985C311.324 276.417 311.055 275.826 310.761 275.064L310.639 274.742L309.378 271.208C309.145 270.57 308.439 270.242 307.801 270.475ZM354.179 147.856L353.63 148.355L352.972 148.97L352.451 149.462L351.495 150.37L350.756 151.062L350.436 151.358C349.558 152.163 348.923 152.704 348.206 153.254L347.648 153.676L347.188 154.017L346.891 154.235C345.405 155.321 343.867 156.368 341.479 157.936L337.873 160.291L336.531 161.176L335.737 161.705C331.439 164.58 329.018 166.42 326.353 168.881C321.305 173.542 318.651 181.513 317.635 192.301L317.587 192.829L317.541 193.353L317.498 193.874C317.145 198.295 317.085 202.52 317.167 209.005L317.22 213.357L317.223 214.269L317.219 214.835C317.217 215.014 317.214 215.185 317.21 215.357L317.108 219.244L317.041 221.957L316.999 223.745C316.642 239.166 316.516 252.735 316.643 265.799C316.652 266.68 316.976 267.337 317.655 268.234L317.969 268.64C318.461 269.273 318.911 269.764 319.74 270.589L320.696 271.534L320.953 271.792C322.068 272.919 322.601 273.58 323.059 274.432L323.289 274.868L323.403 275.09L323.522 275.327C324.186 276.664 324.665 277.922 325.534 280.457L325.822 281.298C327.677 286.756 329.067 289.359 332.298 292.172C332.636 292.466 333.119 292.594 333.605 292.404C333.94 292.274 334.132 292.066 334.272 291.818C334.314 291.743 334.345 291.673 334.373 291.6L334.412 291.49L334.457 291.339L334.471 291.309C334.696 290.764 334.502 290.129 334.001 289.806L333.937 289.767C333.723 289.646 333.488 289.597 333.259 289.611L333.155 289.622L333.125 289.594C330.931 287.465 329.792 285.253 328.319 280.997L327.662 279.079L327.346 278.178L327.184 277.725C326.524 275.899 326.051 274.819 325.316 273.436L325.226 273.268C324.55 272.009 323.817 271.156 322.168 269.529L321.498 268.868L321.152 268.52C320.689 268.05 320.376 267.707 320.081 267.344L319.701 266.86L319.566 266.682C319.234 266.232 319.105 265.966 319.103 265.775L319.084 263.59L319.074 262.101L319.063 259.856C319.015 247.6 319.182 234.732 319.546 220.182L319.676 215.069L319.683 214.291L319.678 213.025C319.674 212.484 319.666 211.835 319.655 211.021L319.623 208.605L319.607 207.103L319.598 205.559C319.577 200.432 319.694 196.782 320.06 192.8L320.085 192.532C321.049 182.296 323.533 174.834 328.022 170.688L328.412 170.332L328.839 169.948L329.119 169.701C331.687 167.448 334.349 165.546 339.243 162.335L342.843 159.983L344.006 159.216L344.734 158.731C346.603 157.482 347.926 156.547 349.373 155.458L349.705 155.205L350.04 154.945L350.259 154.77L350.586 154.503C351.279 153.927 352.001 153.273 353.022 152.311L354.864 150.568L355.243 150.215L355.629 149.862C355.693 149.804 355.757 149.746 355.823 149.686C356.329 149.232 356.37 148.454 355.916 147.949C355.462 147.444 354.684 147.402 354.179 147.856ZM414.127 247.681C413.868 248.309 414.167 249.028 414.795 249.287L416.226 249.879L419.332 251.168L421.294 251.986C423.887 253.069 426.393 254.124 428.919 255.195L439.281 259.607C444.977 262.019 447.7 263.066 450.689 263.938L451.343 264.126L451.809 264.254L452.517 264.443C454.671 265.001 457.172 265.52 462.002 266.442L471.278 268.205L474.592 268.842C480.433 269.972 485.194 270.93 492.374 272.416C493.039 272.553 493.69 272.126 493.828 271.46C493.966 270.795 493.538 270.144 492.873 270.006L488.782 269.163L485.003 268.393L481.9 267.77C478.127 267.017 474.514 266.316 469.962 265.449L461.503 263.841L459.785 263.508C455.734 262.715 453.746 262.257 451.635 261.651L450.969 261.455L450.414 261.285L449.857 261.108C447.612 260.379 445.162 259.417 441.022 257.672L430.533 253.207L427.27 251.827L425.307 251L422.838 249.965C420.556 249.01 418.212 248.036 415.734 247.013C415.106 246.754 414.387 247.053 414.127 247.681ZM408.101 146.069C407.618 146.547 407.616 147.326 408.095 147.808L408.831 148.553L409.957 149.7L410.532 150.29C411.499 151.285 412.509 152.334 413.591 153.468L415.89 155.89L421.96 162.33C430.937 171.83 436.438 177.285 442.67 182.583L443.768 183.507L448.001 187.001C450.247 188.846 452.372 190.584 452.726 190.879C460.82 197.617 465.601 202.656 469.991 209.774C474.561 217.184 477.62 225.826 479.469 235.828C480.997 244.095 481.671 252.939 481.813 263.801C481.822 264.481 482.38 265.024 483.059 265.016C483.739 265.006 484.282 264.448 484.274 263.769C484.129 252.779 483.446 243.806 481.888 235.381C479.987 225.098 476.828 216.173 472.085 208.482C467.597 201.205 462.723 196.031 454.653 189.282L447.776 183.63L445.653 181.875L444.729 181.102L443.863 180.367L443.26 179.849L442.66 179.327C437.002 174.389 431.633 168.998 423.158 160.015L417.512 154.025L416.558 153.018C414.018 150.342 411.891 148.139 409.84 146.075C409.361 145.593 408.583 145.59 408.101 146.069ZM407.675 157.771C407.228 158.283 407.281 159.06 407.792 159.507L416.269 166.89L417.473 167.945L419.291 169.55L419.977 170.158C421.327 171.36 422.552 172.466 423.728 173.545L424.021 173.814C434.642 183.591 441.922 192.004 448.918 203.213C451.166 206.815 452.951 210.704 454.497 215.19L454.656 215.656C455.776 218.969 456.573 221.851 457.935 227.321L459.12 232.097L459.484 233.54L459.715 234.439C459.987 235.489 460.228 236.382 460.512 237.403C460.804 238.453 461.095 239.456 461.391 240.428L461.646 241.254L461.889 242.025L462.195 242.975C463.017 245.5 463.921 248.026 465.388 251.958L468.006 258.946L468.382 259.967L468.823 261.179C468.872 261.314 468.921 261.451 468.971 261.59C469.201 262.229 469.905 262.561 470.545 262.331C471.184 262.102 471.516 261.397 471.286 260.758L470.835 259.512L470.42 258.38L470.05 257.384L467.604 250.856L466.874 248.888L466.522 247.928C465.504 245.136 464.806 243.099 464.107 240.88L463.89 240.183C463.598 239.241 463.312 238.271 463.026 237.256L462.641 235.87L462.335 234.73C461.96 233.316 461.567 231.752 460.926 229.163L460.177 226.141L459.669 224.133C458.725 220.441 458.033 218.014 457.166 215.404L456.987 214.868C455.347 210.015 453.439 205.811 451.005 201.91C443.977 190.649 436.658 182.15 426.116 172.4L425.687 172.004C423.498 169.989 421.164 167.906 418.198 165.308L409.411 157.654C408.899 157.207 408.122 157.26 407.675 157.771ZM405.016 161.573C404.429 161.917 404.233 162.67 404.576 163.256L408.662 170.249L410.881 174.074C411.624 175.358 412.258 176.461 412.79 177.393L413.569 178.763L413.993 179.517L414.106 179.73L414.189 179.884L414.272 180.031L414.33 180.123L414.39 180.203C414.413 180.231 414.435 180.253 414.547 180.362L414.609 180.409L414.696 180.47L414.831 180.543L415.049 180.619L415.397 180.653L415.418 180.645L415.896 181.304L416.638 182.347L417.282 183.265C417.735 183.913 418.233 184.633 418.778 185.428L420.003 187.221C420.639 188.158 421.311 189.28 422.017 190.579C423.14 192.646 424.325 195.11 425.616 198.023L426.02 198.939L426.593 200.281L430.467 209.508C431.131 211.079 431.665 212.325 431.895 212.808L432.101 213.229L432.252 213.531C432.907 214.832 433.59 216.044 434.724 217.945L436.432 220.787L436.945 221.65C438.238 223.841 438.966 225.199 439.691 226.8L440.073 227.654L440.402 228.396L440.734 229.156C442.856 234.039 444.223 237.812 445.33 241.715L445.407 241.989C445.751 243.218 446.08 244.49 446.432 245.948L446.691 247.038L448.87 256.589C449.023 257.251 449.684 257.663 450.346 257.51C451.008 257.356 451.42 256.695 451.266 256.033L449.024 246.212L448.823 245.368L448.645 244.641C448.352 243.452 448.07 242.375 447.776 241.325L447.616 240.762C446.352 236.358 444.751 232.084 442.159 226.29L441.992 225.918C441.106 223.946 440.252 222.383 438.534 219.508L436.849 216.705L436.485 216.091L436.111 215.454C435.32 214.099 434.787 213.116 434.248 212.02L434.084 211.682L433.953 211.393L433.686 210.785C432.402 207.825 429.173 200.003 428.195 197.772L427.864 197.021L427.537 196.289C426.347 193.638 425.241 191.359 424.179 189.404C423.437 188.039 422.724 186.848 422.037 185.838L420.815 184.048L420.042 182.925C417.74 179.595 416.385 177.767 415.781 177.141C415.66 177.016 415.55 176.917 415.432 176.833C415.388 176.803 415.344 176.774 415.297 176.748L415.237 176.716L413.341 173.414L411.875 170.881C410.715 168.883 409.349 166.539 407.763 163.829L406.699 162.012C406.355 161.426 405.602 161.23 405.016 161.573ZM400.524 165.188C399.896 165.374 399.528 166.017 399.675 166.647L402.236 175.533L403.314 179.221L403.767 180.748C403.806 180.878 403.843 181.003 403.879 181.122L404.044 181.665C405.809 187.433 407.41 191.998 409.015 195.621C411.741 201.776 414.532 206.968 418.5 213.512L419.185 214.635L425.333 224.569C427.768 228.546 429.822 232.047 431.869 235.763L432.318 236.583L432.634 237.17C434.011 239.75 435.154 242.218 437.276 247.04L438.471 249.753L438.954 250.838L439.426 251.887C439.652 252.384 439.867 252.853 440.1 253.353C440.387 253.969 441.118 254.235 441.734 253.949C442.35 253.662 442.617 252.93 442.33 252.314L441.759 251.075L441.218 249.875L440.041 247.216L438.855 244.526L438.161 242.969L437.649 241.835C436.456 239.215 435.571 237.417 434.504 235.451L434.32 235.114C432.36 231.536 430.412 228.185 428.155 224.47L427.028 222.629L421.411 213.56L421.174 213.173C416.95 206.262 414.071 200.961 411.264 194.624C409.779 191.27 408.278 187.032 406.632 181.712L406.259 180.491C405.801 178.974 405.087 176.53 404.376 174.078L402.053 166.019C401.86 165.368 401.176 164.996 400.524 165.188ZM393.52 171.931C392.879 172.154 392.54 172.856 392.764 173.497L395.519 181.377L398.103 188.725L399.519 192.729C400.965 196.81 402.298 200.544 403.537 203.989L405.742 210.085L406.001 210.795L411.082 224.639L411.507 225.822C412.707 229.214 413.396 231.694 417.727 247.179C417.91 247.833 418.588 248.215 419.243 248.032C419.897 247.849 420.279 247.171 420.096 246.516L417.269 236.424C415.268 229.313 414.682 227.402 413.747 224.777L412.762 222.064L408.514 210.504L407.173 206.816L405.564 202.353L404.022 198.048C401.469 190.896 398.537 182.58 395.087 172.687C394.863 172.046 394.162 171.707 393.52 171.931ZM382.056 168.995C381.407 169.194 381.042 169.882 381.241 170.532L383.077 176.541L383.09 176.597L383.073 176.646C383.031 176.779 383.003 176.925 382.986 177.105L382.977 177.216L382.972 177.346L382.97 177.479L382.972 177.622C383.026 180.064 384.429 187.644 388.018 203.85L388.868 207.667L389.328 209.686C390.307 213.933 391.333 218.018 393.008 224.409L396.133 236.252L396.677 238.335L397.17 240.247C397.278 240.668 397.386 241.091 397.496 241.526C397.664 242.184 398.334 242.582 398.992 242.414C399.65 242.247 400.048 241.577 399.881 240.919L399.033 237.619L398.159 234.28L395.779 225.271L394.946 222.095L394.384 219.927C393.042 214.731 392.165 211.122 391.242 207.01L390.433 203.375L389.703 200.06L389.082 197.205C386.454 185.042 385.422 179.185 385.428 177.541L385.431 177.406L385.451 177.369C385.619 177.032 385.625 176.71 385.538 176.285L385.46 175.917C385.389 175.647 385.093 174.69 383.593 169.809C383.394 169.16 382.706 168.795 382.056 168.995ZM372.106 178.626C371.447 178.791 371.046 179.459 371.211 180.118L373.289 188.461L373.877 190.869C374.768 194.56 374.97 195.706 375.201 197.546L375.405 199.243C375.584 200.811 376.298 207.179 376.711 210.613L377.037 213.286L377.396 216.156L377.635 218.033C378.37 223.762 379.266 230.4 380.38 238.309C380.474 238.981 381.096 239.45 381.769 239.355C382.442 239.26 382.911 238.638 382.816 237.966L382.118 232.968L381.439 228.019L380.933 224.262C380.377 220.099 379.898 216.373 379.479 212.985L379.022 209.213L378.303 202.965C378.044 200.686 377.837 198.838 377.809 198.613L377.614 197.018C377.234 194.049 376.874 192.643 373.598 179.522C373.433 178.863 372.766 178.462 372.106 178.626ZM364.298 169.59C363.643 169.614 363.127 170.146 363.115 170.793L363.115 170.85L363.545 181.709L363.85 189.98C363.909 191.705 363.952 193.093 363.968 193.867L363.974 194.267C363.988 196.537 363.657 212.638 363.545 219.817C363.534 220.496 364.076 221.056 364.756 221.067C365.435 221.077 365.994 220.535 366.005 219.855L366.377 198.945C366.409 197.011 366.43 195.484 366.434 194.657L366.434 194.251C366.425 192.848 366.192 186.515 365.971 180.768L365.574 170.772C365.548 170.093 364.977 169.564 364.298 169.59ZM350.111 159.855C347.983 162.755 345.941 165.221 343.626 167.757L343.139 168.287L341.754 169.757L338.646 173.045C338.401 173.306 338.18 173.542 337.995 173.742L337.616 174.155C332.074 180.3 329.405 186.02 327.303 197.951C327.185 198.62 327.632 199.258 328.301 199.376C328.97 199.494 329.608 199.047 329.726 198.378L329.848 197.696L329.967 197.048L330.091 196.401C332.011 186.475 334.425 181.466 339.133 176.15L339.443 175.803C340.359 174.787 344.158 170.812 345.068 169.825C347.595 167.082 349.798 164.442 352.095 161.31C352.497 160.762 352.378 159.992 351.83 159.591C351.283 159.189 350.513 159.307 350.111 159.855ZM355.27 164.332L353.427 196.253C353.388 196.931 353.906 197.512 354.584 197.552C355.263 197.591 355.844 197.073 355.883 196.394L357.726 164.474C357.765 163.795 357.247 163.214 356.569 163.175C355.891 163.136 355.309 163.654 355.27 164.332ZM348.493 171.453L341.507 195.354C341.317 196.007 341.691 196.69 342.343 196.88C342.995 197.071 343.678 196.697 343.869 196.045L350.854 172.143C351.045 171.491 350.671 170.807 350.019 170.617C349.367 170.426 348.683 170.8 348.493 171.453Z" fill="#5463AC"/>
<path opacity="0.5" fill-rule="evenodd" clip-rule="evenodd" d="M391.776 162.422L372.65 174.288L360.612 160.374L368.951 154.389L373.892 162.422L382.411 154.389L385.087 153.362L391.776 162.422Z" fill="#21396E"/>
<path opacity="0.5" fill-rule="evenodd" clip-rule="evenodd" d="M329.322 255.972C326.986 291.057 317.545 310.083 300.998 313.05H336.431L334.254 270.4L329.322 255.972Z" fill="#21396E"/>
<path opacity="0.5" fill-rule="evenodd" clip-rule="evenodd" d="M359.855 270.4C357.655 281.304 362.512 288.436 374.424 291.796C392.291 296.836 411.284 319.3 436.562 319.3C453.414 319.3 471.702 319.282 491.426 319.245C477.571 315.111 462.756 310.345 446.982 304.947C431.207 299.548 407.705 291.2 376.474 279.904C374.275 278.443 373.09 276.94 372.92 275.394C372.75 273.849 372.665 273.076 372.665 273.076C369.45 272.066 367.039 271.393 365.431 271.058C363.823 270.722 361.964 270.503 359.855 270.4Z" fill="#21396E"/>
<path opacity="0.5" fill-rule="evenodd" clip-rule="evenodd" d="M434.6 195.328L432.044 251.235L458.733 258.54L434.6 195.328Z" fill="#21396E"/>
<path fill-rule="evenodd" clip-rule="evenodd" d="M362.315 209.814H325.819L330.246 267.512C330.346 268.815 331.211 269.935 332.446 270.361C334.855 271.193 338.728 271.609 344.067 271.609L344.665 271.607C349.696 271.577 353.37 271.161 355.688 270.361C356.923 269.935 357.788 268.815 357.888 267.512L362.315 209.814Z" fill="#E2E0E0"/>
<path fill-rule="evenodd" clip-rule="evenodd" d="M325.819 209.814L330.246 267.512C330.346 268.815 331.21 269.935 332.446 270.361C334.854 271.193 338.728 271.609 344.067 271.609C347.947 271.609 348.444 251.062 345.557 209.97L325.819 209.814Z" fill="white"/>
<path fill-rule="evenodd" clip-rule="evenodd" d="M361.432 203.664H326.987C325.628 203.664 324.526 204.765 324.526 206.124V209.814H363.892V206.124C363.892 204.765 362.79 203.664 361.432 203.664Z" fill="#80424C"/>
<path fill-rule="evenodd" clip-rule="evenodd" d="M357.394 197.513H331.15C329.791 197.513 328.69 198.614 328.69 199.973V203.664H359.854V199.973C359.854 198.614 358.753 197.513 357.394 197.513Z" fill="#80424C"/>
<path fill-rule="evenodd" clip-rule="evenodd" d="M340.991 203.664H327.049C325.69 203.664 324.589 204.765 324.589 206.124V209.814H343.451V206.124C343.451 204.765 342.35 203.664 340.991 203.664Z" fill="#8E545E"/>
<path fill-rule="evenodd" clip-rule="evenodd" d="M336.891 197.513H331.15C329.791 197.513 328.69 198.614 328.69 199.973V203.664H339.351V199.973C339.351 198.614 338.25 197.513 336.891 197.513Z" fill="#8E545E"/>
<path d="M328.689 202.843C328.236 202.843 327.869 203.211 327.869 203.664C327.869 204.096 328.204 204.45 328.628 204.481L328.689 204.484H352.332C352.785 204.484 353.153 204.117 353.153 203.664C353.153 203.231 352.818 202.877 352.394 202.846L352.332 202.843H328.689Z" fill="#5F2932"/>
<path d="M324.667 208.789C324.214 208.789 323.846 209.156 323.846 209.609C323.846 210.042 324.181 210.396 324.605 210.427L324.667 210.43H358.971C359.424 210.43 359.791 210.062 359.791 209.609C359.791 209.177 359.457 208.823 359.032 208.792L358.971 208.789H324.667Z" fill="#5F2932"/>
<path fill-rule="evenodd" clip-rule="evenodd" d="M364.12 124.655C364.672 128.208 364.948 131.351 364.948 134.085L366.26 148.421L373.249 162.167L387.951 156.561L411.564 135.109L415.911 125.541C406.805 109.129 401.383 94.6878 399.645 82.2159L375.502 77.857L360.532 107.388L364.12 124.655Z" fill="#FDB4A3"/>
<path fill-rule="evenodd" clip-rule="evenodd" d="M398.068 86.6246C397.695 105.964 393.918 117.285 386.737 120.588C375.966 125.541 355.962 132.472 352.215 125.541C348.468 118.609 340.438 102.126 337.362 92.6823C335.31 86.3862 332.712 78.2658 329.567 68.3211C325.335 55.764 330.273 47.6485 344.38 43.9745C358.487 40.3005 376.909 38.4877 399.645 38.5362L394.054 71.3249C396.807 67.611 400.447 65.754 404.975 65.754C411.766 65.754 415.493 82.6712 408.528 84.6479C403.884 85.9657 400.397 86.6246 398.068 86.6246Z" fill="#FDB4A3"/>
<path d="M366.189 105.554C365.829 105.279 365.314 105.347 365.039 105.707C361.621 110.172 357.436 111.975 352.379 111.185C351.931 111.116 351.512 111.422 351.442 111.869C351.372 112.317 351.678 112.736 352.126 112.806C357.793 113.691 362.567 111.634 366.342 106.704C366.617 106.344 366.549 105.83 366.189 105.554Z" fill="#583E40"/>
<path fill-rule="evenodd" clip-rule="evenodd" d="M399.939 86.3426C397.09 87.6882 395.999 90.6416 396.666 95.2026L396.697 95.4079C397.793 102.425 394.294 112.649 392.137 116.619C390.699 119.265 381.578 122.92 364.774 127.584L374.321 128.96C378.912 129.622 382.097 133.88 381.436 138.47C381.391 138.781 381.329 139.089 381.25 139.392L381.187 139.619C379.432 145.65 373.372 148.422 373.251 161.76L373.249 162.167L387.951 156.561L411.565 135.109L415.911 125.541C407.89 111.084 402.727 98.1561 400.423 86.7564L399.939 86.3426Z" fill="#F69883"/>
<path fill-rule="evenodd" clip-rule="evenodd" d="M389.857 158.162L372.558 174.288L362.075 156.327L369.509 150.967L373.914 158.162L381.508 150.967L383.894 150.047L389.857 158.162Z" fill="#D8D8D8"/>
<path fill-rule="evenodd" clip-rule="evenodd" d="M325.477 217.702C323.052 218.673 322.837 219.839 322.837 220.903C322.837 221.968 326.681 224.674 329.063 225.351C331.444 226.027 343.066 237.621 343.066 237.621L342.581 237.341C334.713 232.817 329.975 230.716 328.365 231.036C325.901 231.527 324.275 235.393 326.35 237.218L326.507 237.354C327.494 238.192 329.236 239.427 331.735 241.058L331.847 241.13L331.783 241.094C329.208 239.658 327.534 239.23 326.76 239.81C325.073 241.074 324.001 243.433 324.001 244.541C324.001 245.28 325.09 246.361 327.268 247.782C325.219 249.95 325.585 252.22 328.365 254.593L328.627 254.813C333.107 258.517 347.015 267.372 349.927 268.662C352.519 269.811 363.111 269.861 372.665 273.076C371.224 265.465 373.097 255.58 378.285 243.42L378.624 242.633C378.893 242.015 379.247 241.457 379.667 240.969L379.283 240.843C376.014 239.759 374.224 238.905 373.912 238.279C373.292 237.034 371.458 226.537 370.343 226.027L370.282 225.997C369.449 225.573 366.55 223.375 361.585 219.403L360.423 234.952L353.999 231.107C346.498 226.6 341.852 223.745 340.063 222.541L339.867 222.407C336.815 220.312 327.902 216.731 325.477 217.702ZM331.925 241.181L331.848 241.131L331.929 241.177C333.061 241.816 334.362 242.646 335.833 243.666L334.849 243.049C333.783 242.379 332.808 241.756 331.925 241.181Z" fill="#FDB4A3"/>
<path d="M434.943 193.993C434.785 193.568 434.312 193.353 433.888 193.512C433.484 193.663 433.269 194.099 433.387 194.506L433.407 194.567L456.957 257.534L456.863 257.516C451.028 256.349 428.665 250.2 390.388 239.22L386.679 238.155C383.118 237.132 379.35 238.908 377.872 242.306C371.735 256.419 369.932 267.606 372.521 275.888C373.316 278.432 375.245 280.464 377.744 281.392C456.037 310.444 491.311 321.739 500.929 321.739C501.382 321.739 501.749 321.372 501.749 320.919C501.749 320.466 501.382 320.099 500.929 320.099C491.611 320.099 456.298 308.792 378.315 279.854C376.292 279.103 374.73 277.458 374.087 275.398C371.638 267.565 373.382 256.745 379.376 242.96C380.526 240.317 383.456 238.936 386.226 239.732L394.216 242.023C434.701 253.617 455.773 259.333 458.199 259.36C458.755 259.367 459.149 258.833 458.996 258.311L458.977 258.253L434.943 193.993Z" fill="#21396E"/>
<path d="M458.395 257.742C457.954 257.639 457.513 257.913 457.41 258.354C457.311 258.775 457.556 259.196 457.963 259.323L458.022 259.339L489.381 266.666C489.822 266.769 490.264 266.495 490.367 266.054C490.465 265.633 490.22 265.212 489.814 265.085L489.755 265.069L458.395 257.742Z" fill="#21396E"/>
<path d="M334.208 273.983C333.776 274.007 333.441 274.361 333.434 274.786L333.435 274.848L335.907 318.916C335.932 319.368 336.319 319.714 336.771 319.689C337.203 319.664 337.538 319.311 337.545 318.885L337.544 318.824L335.073 274.756C335.048 274.324 334.695 273.989 334.269 273.982L334.208 273.983Z" fill="#21396E"/>
<path fill-rule="evenodd" clip-rule="evenodd" d="M381.508 150.84C388.631 156.069 391.891 162.927 391.289 171.415C409.142 153.715 419.251 141.828 421.615 135.755C419.552 129.51 417.65 126.105 415.911 125.541L381.508 150.84Z" fill="white"/>
<path fill-rule="evenodd" clip-rule="evenodd" d="M369.509 150.967C364.351 156.164 361.772 161.903 361.772 168.185C358.793 162.872 358.003 153.327 359.4 139.55L364.856 133.842L366.941 139.55L369.509 150.967Z" fill="white"/>
<path d="M346.917 83.5917L346.856 83.5946C346.405 83.6322 346.069 84.0286 346.107 84.48C346.507 89.2775 346.533 92.9349 346.324 97.1203L346.255 98.3849C346.225 98.897 346.177 99.7134 346.163 99.9736L346.139 100.451C346.123 100.799 346.112 101.095 346.107 101.366L346.104 101.591L346.1 102.044L346.482 102.288C350.244 104.7 353.78 104.3 356.822 101.111C357.135 100.783 357.122 100.264 356.795 99.9513C356.467 99.6387 355.948 99.6509 355.635 99.9787C353.29 102.437 350.794 102.853 347.927 101.244L347.754 101.144L347.766 100.796C347.769 100.709 347.773 100.617 347.778 100.522L347.915 98.0866C348.176 93.4557 348.176 89.5567 347.741 84.3437C347.706 83.9129 347.343 83.5877 346.917 83.5917Z" fill="#2E363A"/>
<path fill-rule="evenodd" clip-rule="evenodd" d="M366.664 69.4437L365.992 69.0663L365.33 68.7C358.721 65.0723 354.76 63.7608 353.446 64.7655C351.146 66.5248 353.573 71.0775 358.764 71.5551C361.207 71.7798 363.605 71.7065 365.956 71.3349L366.348 71.2703C366.883 71.1779 367.242 70.6688 367.15 70.1332C367.1 69.8421 366.922 69.589 366.664 69.4437Z" fill="#2E363A"/>
<path fill-rule="evenodd" clip-rule="evenodd" d="M328.619 75.9529L329.073 75.4745L329.4 75.1327C333.948 70.4084 336.903 68.279 338.266 68.7447C340.63 69.5527 339.844 73.8365 335.693 75.5776C333.739 76.3971 331.744 76.9657 329.707 77.2832L329.367 77.3338C328.901 77.4 328.47 77.086 328.403 76.6326C328.367 76.3862 328.446 76.1366 328.619 75.9529Z" fill="#2E363A"/>
<path fill-rule="evenodd" clip-rule="evenodd" d="M408.804 111.759C408.974 103.362 412.033 93.1367 417.981 81.0823C426.904 63.0006 425.189 31.3613 400.558 25.9306C394.168 12.756 382.754 8.59088 366.317 13.4353L365.34 13.7242C349.522 18.4164 340.813 21.7537 339.214 23.736L338.932 22.9195C337.731 19.4209 337.131 17.3503 337.131 16.7078C337.131 15.6712 323.875 25.3597 321.898 31.9475L319.902 29.1241C309.82 39.8947 311.011 53.237 323.476 69.151L332.482 77.5361L329.598 68.2111L329.733 68.0962C330.955 67.03 332.921 64.6049 335.63 60.8209C339.657 60.7492 342.938 59.9906 345.473 58.545L346.382 58.4173C353.35 57.4153 357.889 56.2125 359.998 54.8091C366.099 64.1117 372.935 68.7073 380.503 68.5958L384.291 80.199C385.434 83.7005 388.905 85.8848 392.544 85.4165L392.69 85.3964L394.054 71.3249C398.331 66.7668 402.779 65.7289 407.396 68.2111C414.321 71.9346 414.321 86.3426 399.939 86.3426L402.653 97.8989L408.804 111.759Z" fill="#2E363A"/>
<path fill-rule="evenodd" clip-rule="evenodd" d="M357.865 83.6054C356.75 83.8021 355.607 82.6054 355.312 80.9327C355.017 79.26 355.682 77.7446 356.797 77.548C357.912 77.3513 359.055 78.5479 359.35 80.2207C359.645 81.8934 358.98 83.4088 357.865 83.6054Z" fill="#2E363A"/>
<path fill-rule="evenodd" clip-rule="evenodd" d="M339.412 86.8859C338.297 87.0825 337.154 85.8859 336.859 84.2132C336.564 82.5405 337.229 81.0251 338.344 80.8285C339.459 80.6318 340.602 81.8284 340.897 83.5012C341.192 85.1739 340.527 86.6893 339.412 86.8859Z" fill="#2E363A"/>
<path fill-rule="evenodd" clip-rule="evenodd" d="M235.704 206.944H82.2138C79.9491 206.944 78.1132 208.78 78.1132 211.045C78.1132 211.572 78.2149 212.095 78.4129 212.584L124.007 325.19H290.491L245.207 213.348C243.639 209.477 239.881 206.944 235.704 206.944Z" fill="#B6D4E5"/>
<path fill-rule="evenodd" clip-rule="evenodd" d="M368.402 313.299H273.679V325.19H358.151C363.813 325.19 368.402 320.601 368.402 314.939V313.299Z" fill="#B6D4E5"/>
<path d="M405.561 73.1147C403.552 71.1059 400.295 71.1059 398.286 73.1147C397.966 73.435 397.966 73.9542 398.286 74.2745C398.607 74.5948 399.126 74.5948 399.446 74.2745C400.814 72.9063 403.033 72.9063 404.401 74.2745C405.769 75.6428 405.769 77.8611 404.401 79.2294C404.081 79.5497 404.081 80.0689 404.401 80.3892C404.721 80.7095 405.241 80.7095 405.561 80.3892C407.57 78.3804 407.57 75.1235 405.561 73.1147Z" fill="#583E40"/>
<path fill-rule="evenodd" clip-rule="evenodd" d="M227.094 207.08H73.6031C71.3384 207.08 69.5025 208.916 69.5025 211.181C69.5025 211.708 69.6043 212.231 69.8022 212.72L111.87 316.617C114.001 321.881 119.113 325.326 124.792 325.326H275.796C278.061 325.326 279.896 323.491 279.896 321.226C279.896 320.698 279.795 320.176 279.597 319.687L236.596 213.484C235.029 209.613 231.27 207.08 227.094 207.08Z" fill="#D9E2EA"/>
<path d="M311.97 193.461C311.518 193.44 311.134 193.79 311.114 194.242L311.073 195.186C310.46 210.067 311.255 229.263 313.457 252.78L313.7 255.323L313.569 255.415C310.434 257.634 308.838 259.84 308.891 262.083L308.896 262.208C309.12 266.63 312.702 273.027 319.464 279.167C319.799 279.471 320.318 279.446 320.623 279.111C320.927 278.775 320.902 278.257 320.567 277.952C314.101 272.083 310.734 266.068 310.534 262.125C310.448 260.431 311.898 258.504 315.02 256.407C315.27 256.239 315.408 255.947 315.379 255.647L315.161 253.38C312.864 229.087 312.062 209.397 312.752 194.317C312.773 193.865 312.423 193.481 311.97 193.461Z" fill="#21396E"/>
<path d="M310.858 265.818C308.479 265.733 306.501 265.902 304.919 266.332C302.295 267.045 301.27 269.795 301.27 274.802C301.27 276.192 302.058 277.598 303.526 279.195C304.212 279.941 304.981 280.669 306.095 281.649L307.575 282.942C310.664 285.657 311.484 286.594 311.352 287.272L311.339 287.329C311.218 287.765 311.473 288.217 311.909 288.339C312.346 288.46 312.798 288.205 312.919 287.768C313.221 286.683 312.656 285.587 311.409 284.251C310.948 283.757 310.391 283.228 309.663 282.58L309.162 282.139L307.67 280.847C306.321 279.676 305.465 278.88 304.734 278.085C303.519 276.764 302.91 275.677 302.91 274.802C302.91 270.467 303.694 268.365 305.349 267.915C306.754 267.533 308.573 267.378 310.799 267.457C311.252 267.474 311.632 267.12 311.648 266.667C311.664 266.214 311.31 265.834 310.858 265.818Z" fill="#21396E"/>
<path d="M301.804 274.648C301.719 274.203 301.289 273.911 300.844 273.996L299.875 274.18C291.367 275.788 284.289 276.924 278.643 277.59C278.193 277.643 277.871 278.051 277.924 278.5C277.977 278.95 278.385 279.272 278.835 279.219C284.737 278.523 292.176 277.319 301.152 275.607C301.597 275.522 301.889 275.093 301.804 274.648Z" fill="#21396E"/>
<path d="M396.784 94.5924C396.334 94.5441 395.93 94.87 395.881 95.3203L395.792 96.1395C394.305 109.405 391.89 117.098 388.769 119.075C385.378 121.222 379.94 123.14 372.471 124.806C372.029 124.905 371.751 125.343 371.849 125.785C371.948 126.227 372.386 126.506 372.828 126.407C380.465 124.703 386.065 122.729 389.647 120.46C393.435 118.061 395.978 109.79 397.512 95.4954C397.561 95.045 397.235 94.6408 396.784 94.5924Z" fill="#583E40"/>
<path fill-rule="evenodd" clip-rule="evenodd" d="M177.719 277.61C171.48 277.61 165.507 272.561 164.378 266.334C163.249 260.106 167.391 255.057 173.63 255.057C179.869 255.057 185.841 260.106 186.97 266.334C188.099 272.561 183.957 277.61 177.719 277.61Z" fill="#4E89AB"/>
<path fill-rule="evenodd" clip-rule="evenodd" d="M356.399 242.34L355.884 242.687C350.631 246.26 348.522 249.26 348.522 255.972C348.522 260.587 345.871 263.629 347.251 267.215L347.991 267.641C348.831 268.118 349.498 268.472 349.927 268.662C352.519 269.811 363.111 269.861 372.665 273.076C371.224 265.465 373.097 255.58 378.285 243.42L378.624 242.633C378.893 242.015 379.247 241.457 379.667 240.969L379.283 240.843L378.732 240.657C375.813 239.662 374.206 238.869 373.912 238.279C373.292 237.034 371.458 226.537 370.343 226.027L370.282 225.997L370.21 225.959C369.291 225.453 366.416 223.267 361.585 219.403L360.423 234.952C361.286 237.461 359.945 239.923 356.399 242.34Z" fill="#F69883"/>
<path d="M347.285 226.079C346.901 225.84 346.395 225.959 346.156 226.344C345.93 226.709 346.025 227.184 346.366 227.435L346.421 227.473L363.46 238.036C363.845 238.275 364.35 238.156 364.589 237.771C364.816 237.405 364.72 236.931 364.38 236.68L364.324 236.642L347.285 226.079Z" fill="#583E40"/>
<path d="M331.655 240.007C331.266 239.775 330.763 239.903 330.531 240.292C330.311 240.661 330.415 241.134 330.759 241.379L330.816 241.416L340.091 246.943C340.48 247.175 340.983 247.048 341.215 246.659C341.435 246.289 341.331 245.816 340.987 245.571L340.931 245.534L331.655 240.007Z" fill="#583E40"/>
<path d="M327.674 247.357C327.276 247.141 326.779 247.289 326.562 247.687C326.357 248.066 326.481 248.536 326.837 248.766L326.892 248.799L334.797 253.089C335.195 253.305 335.693 253.157 335.909 252.759C336.114 252.38 335.99 251.911 335.634 251.68L335.579 251.647L327.674 247.357Z" fill="#583E40"/>
<path d="M332.206 231.32C331.799 231.122 331.308 231.291 331.11 231.698C330.921 232.086 331.065 232.55 331.431 232.764L331.488 232.795L346.493 240.105C346.901 240.303 347.391 240.134 347.59 239.727C347.779 239.339 347.634 238.875 347.268 238.66L347.212 238.63L332.206 231.32Z" fill="#583E40"/>
<path d="M416.17 124.763C415.741 124.619 415.276 124.852 415.133 125.281C414.99 125.711 415.222 126.175 415.651 126.319C418.251 127.186 419.98 129.702 420.81 133.998C420.896 134.443 421.326 134.733 421.771 134.647C422.216 134.561 422.507 134.131 422.421 133.687C421.488 128.863 419.414 125.845 416.17 124.763Z" fill="#D8D8D8"/>
<path d="M213.604 216.921C217.992 216.921 222.818 220.036 224.384 223.877L224.423 223.976C225.605 226.992 224.41 229.597 221.579 230.498L221.544 230.509L221.56 230.52C224.997 233 227.649 236.159 229.013 239.504C229.056 239.611 229.098 239.717 229.139 239.824L229.191 239.963L229.248 240.118L229.297 240.259L229.337 240.377L229.407 240.591L229.477 240.817L229.539 241.028L229.6 241.255L229.642 241.416L229.689 241.613L229.722 241.759L229.752 241.899C230.299 244.554 229.891 246.978 228.619 248.915L228.591 248.958L228.621 248.96C232.823 249.25 237.253 252.243 238.74 255.892C240.306 259.734 238.019 262.848 233.631 262.848C229.243 262.848 224.417 259.734 222.851 255.892L222.803 255.773C222.417 254.779 222.284 253.818 222.397 252.939L222.274 252.967C221.212 253.2 220.07 253.32 218.864 253.32L218.697 253.319C216.25 253.297 213.689 252.79 211.18 251.852L211.046 251.801L211.065 251.833C211.304 252.226 211.508 252.628 211.673 253.034C213.239 256.875 210.951 259.99 206.564 259.99C202.176 259.99 197.349 256.875 195.783 253.034C194.218 249.192 196.505 246.078 200.893 246.078L201.043 246.079C201.393 246.085 201.749 246.11 202.109 246.155L202.011 246.061C199.968 244.068 198.399 241.828 197.451 239.504L197.371 239.304C197.241 238.97 197.125 238.638 197.023 238.308L196.973 238.143L196.871 238.173C196.224 238.36 195.508 238.456 194.738 238.456C190.351 238.456 185.524 235.341 183.958 231.5C182.392 227.658 184.68 224.544 189.068 224.544L189.178 224.545C192.573 224.585 196.28 226.486 198.473 229.208L198.491 229.232L198.556 229.158L198.634 229.07L198.802 228.89L198.941 228.749L199.096 228.599L199.223 228.481L199.36 228.36L199.501 228.239L199.628 228.135L199.808 227.995L199.936 227.898L200.086 227.79L200.2 227.711L200.278 227.658L200.415 227.567L200.585 227.46L200.763 227.353L200.801 227.331L200.982 227.228L201.107 227.159L201.307 227.054L201.531 226.943L201.666 226.88L201.852 226.795C201.93 226.761 202.004 226.729 202.08 226.698L202.291 226.613L202.507 226.53L202.697 226.462L202.845 226.411L203.078 226.335L203.315 226.263L203.415 226.234L203.617 226.179L203.844 226.121L203.939 226.098L204.193 226.039L204.428 225.99L204.655 225.946L204.877 225.907L205.137 225.866L205.341 225.836L205.558 225.808L205.704 225.791L205.815 225.779L206.031 225.758L206.178 225.745L206.338 225.733L206.593 225.716L206.786 225.706L206.941 225.7L207.062 225.696L207.28 225.69L207.462 225.688L207.587 225.688L207.823 225.689L208.048 225.693C208.499 225.704 208.953 225.731 209.41 225.774L209.579 225.791L209.578 225.789C209.126 225.173 208.761 224.531 208.495 223.877C206.929 220.036 209.216 216.921 213.604 216.921Z" fill="#B6D4E5"/>
<path d="M213.03 216.921C208.9 216.921 206.748 219.815 208.222 223.385C208.557 224.196 209.056 224.985 209.694 225.725C209.942 226.013 209.783 226.313 209.41 226.261C208.568 226.144 207.733 226.081 206.911 226.071L206.671 226.069L206.549 226.07L206.366 226.072L206.146 226.077L206.027 226.081L205.873 226.088L205.679 226.098L205.423 226.114L205.265 226.126L205.118 226.139L204.9 226.16L204.792 226.172L204.646 226.188L204.429 226.216L204.225 226.245L203.965 226.286L203.744 226.324L203.518 226.368L203.282 226.416L203.027 226.474L202.936 226.496L202.707 226.554L202.505 226.609L202.408 226.637L202.169 226.708L201.936 226.783L201.79 226.833L201.6 226.9L201.384 226.981L201.17 227.066C201.098 227.096 201.023 227.128 200.948 227.16L200.759 227.245L200.626 227.307L200.401 227.417L200.201 227.521L200.078 227.587L199.894 227.691L199.68 227.817L199.51 227.923L199.373 228.012L199.297 228.063L199.183 228.142L199.033 228.249L198.905 228.343L198.724 228.483L198.598 228.585L198.457 228.704L198.321 228.824L198.194 228.939L198.038 229.088L197.9 229.226L197.73 229.407L197.716 229.422C197.549 229.605 197.391 229.794 197.243 229.989C197.078 230.206 196.603 230.1 196.395 229.8C194.399 226.931 190.562 224.876 187.097 224.876C182.967 224.876 180.815 227.77 182.29 231.34C183.764 234.909 188.307 237.803 192.437 237.803C193.434 237.803 194.333 237.634 195.1 237.311C195.381 237.193 195.832 237.43 195.907 237.735C196.066 238.38 196.281 239.034 196.553 239.692C197.638 242.319 199.538 244.834 202.03 247.001C202.386 247.31 202.211 247.698 201.762 247.597C201.031 247.433 200.306 247.349 199.601 247.349C195.471 247.349 193.319 250.242 194.794 253.812C196.268 257.381 200.811 260.275 204.941 260.275C209.07 260.275 211.223 257.381 209.748 253.812C209.471 253.14 209.081 252.483 208.592 251.856C208.32 251.508 208.635 251.207 209.076 251.395C212.013 252.645 215.058 253.315 217.94 253.315C219.548 253.315 221.039 253.105 222.38 252.699C222.745 252.588 223.254 252.982 223.149 253.294C222.803 254.329 222.884 255.535 223.404 256.795C224.879 260.364 229.422 263.258 233.551 263.258C237.681 263.258 239.833 260.364 238.359 256.795C236.884 253.225 232.341 250.332 228.212 250.332C228.072 250.332 227.934 250.335 227.799 250.341C227.377 250.362 226.965 249.907 227.175 249.653C228.864 247.613 229.444 244.91 228.782 241.918L228.749 241.772L228.702 241.578L228.661 241.421L228.599 241.196L228.538 240.988L228.468 240.765L228.397 240.552L228.357 240.437L228.308 240.299L228.251 240.145L228.199 240.006C228.159 239.903 228.116 239.798 228.073 239.692C226.62 236.176 223.708 232.871 219.941 230.361C219.603 230.136 219.583 229.766 219.905 229.7C223.05 229.06 224.439 226.44 223.177 223.385C221.702 219.815 217.159 216.921 213.03 216.921Z" fill="white"/>
<path fill-rule="evenodd" clip-rule="evenodd" d="M217.54 250.956C210.183 250.956 202.091 245.816 199.465 239.475C196.839 233.134 200.673 227.993 208.029 227.993C215.386 227.993 223.478 233.134 226.104 239.475C228.731 245.816 224.896 250.956 217.54 250.956Z" fill="#719CFD"/>
<path fill-rule="evenodd" clip-rule="evenodd" d="M207.75 228.403C204.447 228.403 201.865 229.447 200.278 231.169C200.408 231.684 200.584 232.209 200.808 232.742C203.402 238.952 211.386 243.985 218.639 243.985C221.942 243.985 224.524 242.942 226.111 241.219C225.981 240.705 225.805 240.18 225.582 239.646C222.987 233.437 215.003 228.403 207.75 228.403Z" fill="#B9CDFF"/>
<path fill-rule="evenodd" clip-rule="evenodd" d="M204.666 257.927C202.001 257.927 199.069 256 198.117 253.622C197.165 251.244 198.555 249.316 201.22 249.316C203.885 249.316 206.817 251.244 207.769 253.622C208.721 256 207.331 257.927 204.666 257.927Z" fill="#F6BE67"/>
<path fill-rule="evenodd" clip-rule="evenodd" d="M217.378 227.993C214.712 227.993 211.78 226.065 210.829 223.687C209.877 221.309 211.266 219.382 213.932 219.382C216.597 219.382 219.529 221.309 220.481 223.687C221.432 226.065 220.043 227.993 217.378 227.993Z" fill="#3CB49F"/>
<path fill-rule="evenodd" clip-rule="evenodd" d="M232.96 260.388C230.295 260.388 227.363 258.46 226.412 256.082C225.46 253.704 226.849 251.776 229.515 251.776C232.18 251.776 235.112 253.704 236.064 256.082C237.015 258.46 235.626 260.388 232.96 260.388Z" fill="#4757A4"/>
<path fill-rule="evenodd" clip-rule="evenodd" d="M191.544 235.374C188.879 235.374 185.947 233.446 184.995 231.069C184.044 228.691 185.433 226.763 188.098 226.763C190.764 226.763 193.696 228.691 194.647 231.069C195.599 233.446 194.21 235.374 191.544 235.374Z" fill="#E9525B"/>
<path d="M397.491 26.8297C397.377 26.3913 396.929 26.1282 396.491 26.2421C381.167 30.2213 370.63 38.2823 364.948 50.408C364.756 50.8181 364.932 51.3064 365.342 51.4986C365.753 51.6908 366.241 51.5141 366.433 51.104C371.897 39.4441 382.031 31.6917 396.903 27.8297C397.341 27.7158 397.604 27.2681 397.491 26.8297Z" fill="#868889"/>
<path d="M211.049 274.33C209.623 274.33 208.602 274.939 208.173 275.886C207.007 274.969 205.547 274.369 204.161 274.332L204.023 274.33H192.897L197.042 284.459C197.573 285.757 198.715 286.913 200.061 287.657C199.348 288.377 199.142 289.482 199.611 290.73L199.66 290.855L203.805 300.984H214.931C216.357 300.984 217.377 300.375 217.807 299.427C218.973 300.344 220.433 300.944 221.819 300.982L221.957 300.984H233.083L228.938 290.855C228.406 289.557 227.265 288.401 225.919 287.657C226.632 286.937 226.838 285.831 226.369 284.584L226.32 284.459L222.175 274.33H211.049Z" fill="#B6D4E5"/>
<path d="M209.409 274.33C207.982 274.33 206.962 274.939 206.532 275.886C205.366 274.969 203.906 274.369 202.521 274.332L202.382 274.33H191.257L195.402 284.459C195.933 285.757 197.075 286.913 198.42 287.657C197.707 288.377 197.501 289.482 197.97 290.73L198.019 290.855L202.164 300.984H213.29C214.716 300.984 215.737 300.375 216.166 299.427C217.332 300.344 218.793 300.944 220.178 300.982L220.316 300.984H231.442L227.297 290.855C226.766 289.557 225.624 288.401 224.279 287.657C224.992 286.937 225.198 285.831 224.729 284.584L224.68 284.459L220.535 274.33H209.409Z" fill="white"/>
<path d="M201.666 288.272H210.984L214.456 296.616C214.977 297.868 214.291 298.889 212.922 298.932L212.832 298.933H203.514L200.043 290.59C199.521 289.337 200.207 288.316 201.576 288.273L201.666 288.272Z" fill="#229581"/>
<path d="M212.99 288.272H222.108C223.477 288.272 224.997 289.266 225.55 290.508L225.585 290.59L228.982 298.933H219.864L219.774 298.932C218.429 298.89 216.962 297.912 216.422 296.697L216.387 296.616L212.99 288.272Z" fill="#229581"/>
<path d="M194.127 276.38H203.246C204.615 276.38 206.135 277.374 206.687 278.616L206.722 278.698L210.119 287.042H201.001L200.911 287.04C199.566 286.998 198.1 286.021 197.559 284.805L197.524 284.724L194.127 276.38Z" fill="#229581"/>
<path d="M210.278 276.38H219.595L223.067 284.724C223.588 285.977 222.903 286.997 221.533 287.04L221.443 287.042H212.125L208.654 278.698L208.621 278.616C208.162 277.401 208.848 276.423 210.187 276.381L210.278 276.38Z" fill="#229581"/>
<path d="M94.1327 234.885C95.3882 232.789 98.7884 232.789 101.727 234.887L101.817 234.951C103.295 236.032 104.396 237.471 104.914 238.919L104.94 238.992L110.003 240.55L110.03 240.482C110.53 239.236 111.75 238.474 113.412 238.474L113.534 238.475C113.697 238.479 113.862 238.49 114.028 238.508L114.109 238.517L114.649 230.388L114.594 230.343C112.012 228.233 110.877 225.111 112.057 223.14C113.313 221.043 116.713 221.044 119.652 223.141L119.772 223.228C120.009 223.403 120.238 223.588 120.457 223.782L120.509 223.829L125.324 223.229L125.302 223.145C124.641 220.552 126.076 218.561 128.775 218.562C131.741 218.562 135.11 220.967 136.301 223.933C137.491 226.898 136.052 229.302 133.086 229.301L132.992 229.301C131.26 229.27 129.358 228.425 127.844 227.08L127.752 226.997L122.972 227.593L122.986 227.644C123.297 228.795 123.21 229.884 122.7 230.736L122.662 230.798C121.934 231.949 120.519 232.464 118.857 232.267L118.776 232.257L118.238 240.347L118.272 240.373C119.465 241.328 120.418 242.549 120.938 243.845L120.972 243.931C121.747 245.943 121.315 247.723 119.952 248.614L119.895 248.651L122.213 253.62L122.223 253.624C122.991 253.89 123.757 254.289 124.481 254.806C127.42 256.903 128.785 260.303 127.53 262.4C126.274 264.497 122.874 264.496 119.935 262.399C116.996 260.301 115.631 256.901 116.887 254.805L116.933 254.73C117.248 254.237 117.691 253.858 118.233 253.605L118.328 253.562L116.208 249.019L116.194 249.016C113.85 248.426 111.539 246.588 110.432 244.365L110.371 244.239L104.757 242.512L104.776 242.481C103.52 244.577 100.12 244.577 97.181 242.479C94.242 240.382 92.8773 236.982 94.1327 234.885Z" fill="#B6D4E5"/>
<path d="M93.3128 234.885C94.5682 232.789 97.9685 232.789 100.907 234.887L100.997 234.951C102.475 236.032 103.576 237.471 104.094 238.919L104.12 238.992L109.183 240.55L109.21 240.482C109.71 239.236 110.93 238.474 112.592 238.474L112.714 238.475C112.877 238.479 113.042 238.49 113.208 238.508L113.289 238.517L113.829 230.388L113.774 230.343C111.192 228.233 110.057 225.111 111.237 223.14C112.493 221.043 115.893 221.044 118.832 223.141L118.952 223.228C119.189 223.403 119.418 223.588 119.637 223.782L119.689 223.829L124.504 223.229L124.482 223.145C123.821 220.552 125.256 218.561 127.955 218.562C130.921 218.562 134.29 220.967 135.481 223.933C136.671 226.898 135.232 229.302 132.266 229.301L132.172 229.301C130.44 229.27 128.538 228.425 127.024 227.08L126.932 226.997L122.152 227.593L122.166 227.644C122.477 228.795 122.39 229.884 121.88 230.736L121.842 230.798C121.114 231.949 119.699 232.464 118.037 232.267L117.956 232.257L117.418 240.347L117.452 240.373C118.645 241.328 119.598 242.549 120.118 243.845L120.152 243.931C120.927 245.943 120.495 247.723 119.132 248.614L119.075 248.651L121.393 253.62L121.403 253.624C122.171 253.89 122.937 254.289 123.661 254.806C126.6 256.903 127.965 260.303 126.71 262.4C125.454 264.497 122.054 264.496 119.115 262.399C116.176 260.301 114.811 256.901 116.067 254.805L116.113 254.73C116.428 254.237 116.871 253.858 117.413 253.605L117.508 253.562L115.388 249.019L115.374 249.016C113.03 248.426 110.719 246.588 109.612 244.365L109.551 244.239L103.937 242.512L103.956 242.481C102.7 244.577 99.3 244.577 96.3611 242.479C93.4221 240.382 92.0573 236.982 93.3128 234.885Z" fill="white"/>
<path d="M99.4139 238.669C98.9925 238.54 98.6661 238.734 98.6847 239.103C98.7026 239.46 99.0357 239.849 99.4379 239.992L99.4813 240.007L115.076 244.804C115.454 244.92 115.76 244.776 115.801 244.47L115.805 244.435L116.967 226.96L132.076 225.074C132.434 225.029 132.573 224.699 132.4 224.327L132.38 224.287C132.185 223.911 131.746 223.64 131.383 223.663L131.344 223.666L115.862 225.599C115.645 225.627 115.5 225.762 115.47 225.962L115.466 226.003L114.318 243.254L99.4139 238.669Z" fill="#B9CDFF"/>
<path d="M114.712 243.428C114.346 243.452 114.183 243.767 114.335 244.14L114.354 244.181L120.616 257.607C120.799 257.997 121.255 258.293 121.635 258.268C122.002 258.243 122.164 257.929 122.012 257.556L121.994 257.515L115.731 244.089C115.549 243.698 115.093 243.402 114.712 243.428Z" fill="#B9CDFF"/>
<path fill-rule="evenodd" clip-rule="evenodd" d="M120.674 229.879C119.703 231.5 117.075 231.5 114.803 229.879C112.531 228.258 111.477 225.629 112.447 224.008C113.418 222.388 116.046 222.388 118.318 224.009C120.59 225.63 121.644 228.258 120.674 229.879Z" fill="#719CFD"/>
<path fill-rule="evenodd" clip-rule="evenodd" d="M116.742 223.293C119.235 225.072 120.393 227.957 119.327 229.736C118.908 230.437 118.205 230.862 117.356 231.01C118.785 231.281 120.06 230.904 120.674 229.879C121.644 228.258 120.59 225.63 118.318 224.009C117.668 223.545 116.988 223.213 116.327 223.015C116.466 223.102 116.605 223.195 116.742 223.293Z" fill="#547ACE"/>
<path fill-rule="evenodd" clip-rule="evenodd" d="M115.346 226.946C115.497 228.08 115.086 228.87 114.428 228.711C113.77 228.552 113.114 227.503 112.963 226.369C112.812 225.235 113.223 224.444 113.881 224.604C114.539 224.763 115.195 225.811 115.346 226.946Z" fill="#B9CDFF"/>
<path fill-rule="evenodd" clip-rule="evenodd" d="M102.762 241.619C101.791 243.24 99.163 243.24 96.8914 241.619C94.6198 239.997 93.5652 237.369 94.5358 235.748C95.5064 234.127 98.1347 234.127 100.406 235.748C102.678 237.37 103.733 239.998 102.762 241.619Z" fill="#3CB49F"/>
<path fill-rule="evenodd" clip-rule="evenodd" d="M98.8304 235.032C101.324 236.812 102.481 239.696 101.416 241.476C100.996 242.177 100.294 242.601 99.4441 242.75C100.873 243.02 102.149 242.643 102.762 241.619C103.733 239.998 102.678 237.37 100.406 235.748C99.756 235.284 99.0765 234.953 98.415 234.755C98.5544 234.842 98.693 234.934 98.8304 235.032Z" fill="#229581"/>
<path fill-rule="evenodd" clip-rule="evenodd" d="M97.4343 238.685C97.5855 239.819 97.1746 240.61 96.5166 240.451C95.8586 240.291 95.2026 239.243 95.0514 238.109C94.9002 236.974 95.3111 236.184 95.9691 236.343C96.6271 236.503 97.2831 237.551 97.4343 238.685Z" fill="#50C4B0"/>
<path fill-rule="evenodd" clip-rule="evenodd" d="M125.496 261.522C124.525 263.143 121.897 263.143 119.626 261.521C117.354 259.9 116.299 257.272 117.27 255.651C118.241 254.03 120.869 254.03 123.14 255.651C125.412 257.272 126.467 259.901 125.496 261.522Z" fill="#F6BE67"/>
<path fill-rule="evenodd" clip-rule="evenodd" d="M121.565 254.935C124.058 256.715 125.215 259.599 124.15 261.378C123.73 262.08 123.028 262.504 122.178 262.653C123.607 262.923 124.883 262.546 125.496 261.522C126.467 259.901 125.412 257.272 123.14 255.651C122.49 255.187 121.811 254.856 121.149 254.658C121.289 254.745 121.427 254.837 121.565 254.935Z" fill="#D19C49"/>
<path fill-rule="evenodd" clip-rule="evenodd" d="M120.168 258.588C120.319 259.722 119.909 260.513 119.251 260.354C118.593 260.194 117.937 259.146 117.785 258.012C117.634 256.877 118.045 256.087 118.703 256.246C119.361 256.405 120.017 257.454 120.168 258.588Z" fill="#F9D8A4"/>
<path fill-rule="evenodd" clip-rule="evenodd" d="M131.768 228.089C129.475 228.089 126.871 226.23 125.951 223.938C125.031 221.645 126.144 219.787 128.436 219.787C130.729 219.787 133.333 221.645 134.253 223.938C135.173 226.231 134.06 228.089 131.768 228.089Z" fill="#F6BE67"/>
<path fill-rule="evenodd" clip-rule="evenodd" d="M133.279 222.521C134.289 225.037 133.068 227.076 130.552 227.076C129.56 227.076 128.515 226.76 127.552 226.222C128.746 227.346 130.319 228.089 131.768 228.089C134.06 228.089 135.173 226.231 134.253 223.938C133.99 223.282 133.588 222.661 133.096 222.109C133.163 222.245 133.224 222.382 133.279 222.521Z" fill="#D19C49"/>
<path fill-rule="evenodd" clip-rule="evenodd" d="M128.897 223.08C128.116 223.667 127.06 223.711 126.538 223.178C126.017 222.646 126.228 221.738 127.009 221.151C127.791 220.564 128.847 220.52 129.368 221.052C129.889 221.585 129.678 222.493 128.897 223.08Z" fill="#F9D8A4"/>
<path fill-rule="evenodd" clip-rule="evenodd" d="M116.415 247.99C114.122 247.99 111.518 246.131 110.598 243.838C109.678 241.546 110.791 239.688 113.084 239.688C115.376 239.688 117.98 241.546 118.9 243.839C119.82 246.131 118.707 247.99 116.415 247.99Z" fill="#E9525B"/>
<path fill-rule="evenodd" clip-rule="evenodd" d="M117.927 242.421C118.936 244.938 117.715 246.977 115.199 246.977C114.207 246.977 113.162 246.66 112.199 246.123C113.393 247.247 114.966 247.99 116.415 247.99C118.707 247.99 119.82 246.131 118.9 243.839C118.637 243.183 118.235 242.562 117.743 242.01C117.81 242.146 117.871 242.283 117.927 242.421Z" fill="#CB3E47"/>
<path fill-rule="evenodd" clip-rule="evenodd" d="M113.544 242.981C112.763 243.568 111.707 243.612 111.185 243.079C110.664 242.546 110.875 241.639 111.656 241.052C112.438 240.465 113.494 240.421 114.015 240.953C114.536 241.486 114.325 242.394 113.544 242.981Z" fill="#E98086"/>
<path d="M113.756 59.0486H299.103V186.987H113.756V59.0486ZM115.396 60.6888V185.347H297.462V60.6888H115.396Z" fill="#F0DECF"/>
<path d="M115.378 79.7566V81.3968H276.992V79.7566H115.378Z" fill="#F0DECF"/>
<path fill-rule="evenodd" clip-rule="evenodd" d="M216.475 90.6231H74.5948C63.611 90.6231 54.7069 99.5272 54.7069 110.511C54.7069 121.495 63.611 130.399 74.5948 130.399H216.475C227.459 130.399 236.363 121.495 236.363 110.511C236.363 99.5272 227.459 90.6231 216.475 90.6231Z" fill="#4DC639"/>
<path fill-rule="evenodd" clip-rule="evenodd" d="M248.87 138.6H106.989C96.0054 138.6 87.1013 147.504 87.1013 158.488C87.1013 169.472 96.0054 178.376 106.989 178.376H248.87C259.854 178.376 268.758 169.472 268.758 158.488C268.758 147.504 259.854 138.6 248.87 138.6Z" fill="#5570CD"/>
<path d="M216.475 93.9036C225.647 93.9036 233.083 101.339 233.083 110.511C233.083 119.683 225.647 127.118 216.475 127.118C207.303 127.118 199.868 119.683 199.868 110.511C199.868 101.339 207.303 93.9036 216.475 93.9036ZM216.475 95.5439C208.209 95.5439 201.508 102.245 201.508 110.511C201.508 118.777 208.209 125.478 216.475 125.478C224.741 125.478 231.443 118.777 231.443 110.511C231.443 102.245 224.741 95.5439 216.475 95.5439Z" fill="white"/>
<path d="M248.87 141.881C258.042 141.881 265.477 149.316 265.477 158.488C265.477 167.66 258.042 175.095 248.87 175.095C239.698 175.095 232.262 167.66 232.262 158.488C232.262 149.316 239.698 141.881 248.87 141.881ZM248.87 143.521C240.604 143.521 233.902 150.222 233.902 158.488C233.902 166.754 240.604 173.455 248.87 173.455C257.136 173.455 263.837 166.754 263.837 158.488C263.837 150.222 257.136 143.521 248.87 143.521Z" fill="white"/>
<path d="M248.683 161.563C243.569 161.563 238.956 164.383 236.58 168.797L236.492 168.964L236.222 169.482L236.624 169.907C239.74 173.197 244.061 175.095 248.683 175.095C253.228 175.095 257.481 173.259 260.585 170.07L260.742 169.907L261.144 169.482L260.874 168.964C258.525 164.454 253.861 161.563 248.683 161.563ZM248.683 163.204C252.928 163.204 256.78 165.409 258.961 168.919L259.061 169.082L259.133 169.203L259.098 169.237C256.434 171.82 252.906 173.339 249.125 173.449L248.902 173.454L248.683 173.455C244.808 173.455 241.172 171.976 238.422 169.384L238.233 169.203L238.31 169.073C240.409 165.581 244.145 163.34 248.298 163.21L248.493 163.205L248.683 163.204ZM248.683 147.621C245.173 147.621 242.327 150.467 242.327 153.977C242.327 157.488 245.173 160.333 248.683 160.333C252.193 160.333 255.039 157.488 255.039 153.977C255.039 150.467 252.193 147.621 248.683 147.621ZM248.683 149.262C251.287 149.262 253.398 151.373 253.398 153.977C253.398 156.582 251.287 158.693 248.683 158.693C246.078 158.693 243.967 156.582 243.967 153.977C243.967 151.373 246.078 149.262 248.683 149.262Z" fill="white"/>
<path d="M216.475 113.586C211.361 113.586 206.748 116.406 204.372 120.82L204.284 120.987L204.014 121.505L204.416 121.93C207.532 125.22 211.853 127.118 216.475 127.118C221.02 127.118 225.274 125.282 228.377 122.093L228.534 121.93L228.936 121.505L228.666 120.987C226.318 116.477 221.653 113.586 216.475 113.586ZM216.475 115.227C220.72 115.227 224.573 117.432 226.754 120.942L226.853 121.105L226.925 121.226L226.891 121.26C224.227 123.843 220.698 125.362 216.917 125.472L216.694 125.477L216.475 125.478C212.601 125.478 208.964 124 206.214 121.407L206.059 121.259L206.025 121.225L206.102 121.096C208.201 117.604 211.937 115.363 216.09 115.233L216.285 115.228L216.475 115.227ZM216.475 99.6444C212.965 99.6444 210.119 102.49 210.119 106C210.119 109.511 212.965 112.356 216.475 112.356C219.985 112.356 222.831 109.511 222.831 106C222.831 102.49 219.985 99.6444 216.475 99.6444ZM216.475 101.285C219.079 101.285 221.191 103.396 221.191 106C221.191 108.605 219.079 110.716 216.475 110.716C213.871 110.716 211.759 108.605 211.759 106C211.759 103.396 213.871 101.285 216.475 101.285Z" fill="white"/>
<path d="M283.218 36.4039C287.408 36.4039 290.805 39.8003 290.805 43.99C290.805 48.1797 287.408 51.5761 283.218 51.5761C279.029 51.5761 275.632 48.1797 275.632 43.99C275.632 39.8003 279.029 36.4039 283.218 36.4039ZM283.218 38.0441C279.935 38.0441 277.273 40.7062 277.273 43.99C277.273 47.2738 279.935 49.9359 283.218 49.9359C286.502 49.9359 289.164 47.2738 289.164 43.99C289.164 40.7062 286.502 38.0441 283.218 38.0441Z" fill="#F0DECF"/>
<path d="M255.129 37.224H269.071V51.166H255.129V37.224ZM256.769 38.8642V49.5257H267.431V38.8642H256.769Z" fill="#F0DECF"/>
<path d="M230.309 49.5258V51.1661H247.769V49.5258H230.309Z" fill="#F0DECF"/>
<rect x="67.7069" y="97.9347" width="123.553" height="9.07825" rx="4.53912" stroke="white" stroke-width="2"/>
<rect x="101.865" y="146.864" width="123.553" height="9.07825" rx="4.53912" stroke="white" stroke-width="2"/>
<line x1="94.4795" y1="114.398" x2="190.337" y2="114.398" stroke="white" stroke-width="2" stroke-linecap="round"/>
<line x1="128.637" y1="163.327" x2="224.495" y2="163.327" stroke="white" stroke-width="2" stroke-linecap="round"/>
<line x1="122.175" y1="121.784" x2="190.337" y2="121.784" stroke="white" stroke-width="2" stroke-linecap="round"/>
<line x1="169.258" y1="170.713" x2="224.495" y2="170.713" stroke="white" stroke-width="2" stroke-linecap="round"/>
<defs>
<linearGradient id="paint0_linear_217_2" x1="343.792" y1="126.269" x2="549.349" y2="632.98" gradientUnits="userSpaceOnUse">
<stop stop-color="#1E242E"/>
<stop offset="0.998678" stop-color="#1F2837" stop-opacity="0"/>
</linearGradient>
<linearGradient id="paint1_linear_217_2" x1="430.937" y1="0" x2="430.937" y2="230.863" gradientUnits="userSpaceOnUse">
<stop stop-color="#FCB526"/>
<stop offset="1" stop-color="#FF850A"/>
</linearGradient>
<linearGradient id="paint2_linear_217_2" x1="337.5" y1="318.377" x2="337.201" y2="356.35" gradientUnits="userSpaceOnUse">
<stop stop-color="#DBBC82"/>
<stop offset="1" stop-color="#FEF6E7"/>
</linearGradient>
</defs>
</svg>
