<svg width="20" height="20" viewBox="0 0 45 45" fill="none" xmlns="http://www.w3.org/2000/svg">
<path d="M22.5 4.05414C28.5077 4.05414 29.2193 4.077 31.5918 4.18525C33.7856 4.28537 34.9769 4.65191 35.7699 4.95996C36.82 5.36812 37.5696 5.85578 38.3569 6.64308C39.1442 7.43038 39.6319 8.17999 40.04 9.23014C40.3481 10.0231 40.7146 11.2144 40.8148 13.4081C40.923 15.7807 40.9459 16.4923 40.9459 22.5C40.9459 28.5078 40.923 29.2194 40.8148 31.5919C40.7146 33.7857 40.3481 34.977 40.04 35.7699C39.6319 36.8201 39.1442 37.5697 38.3569 38.357C37.5696 39.1443 36.82 39.632 35.7699 40.04C34.9769 40.3482 33.7856 40.7147 31.5918 40.8148C29.2197 40.9231 28.5081 40.946 22.5 40.946C16.4918 40.946 15.7802 40.9231 13.4081 40.8148C11.2143 40.7147 10.023 40.3482 9.23014 40.04C8.1799 39.632 7.43029 39.1443 6.64299 38.357C5.85569 37.5697 5.36803 36.8201 4.95996 35.7699C4.65182 34.977 4.28528 33.7857 4.18516 31.592C4.07691 29.2194 4.05405 28.5078 4.05405 22.5C4.05405 16.4923 4.07691 15.7807 4.18516 13.4082C4.28528 11.2144 4.65182 10.0231 4.95996 9.23014C5.36803 8.17999 5.85569 7.43038 6.64299 6.64308C7.43029 5.85578 8.1799 5.36812 9.23014 4.95996C10.023 4.65191 11.2143 4.28537 13.408 4.18525C15.7806 4.077 16.4922 4.05414 22.5 4.05414ZM22.5 0C16.3893 0 15.6231 0.025901 13.2233 0.1354C10.8283 0.24472 9.19281 0.625019 7.76156 1.18127C6.28198 1.75627 5.02721 2.52562 3.77637 3.77646C2.52553 5.0273 1.75618 6.28207 1.18118 7.76164C0.624929 9.1929 0.244631 10.8284 0.135311 13.2234C0.0258117 15.6231 0 16.3894 0 22.5C0 28.6107 0.0258117 29.3769 0.135311 31.7767C0.244631 34.1717 0.624929 35.8072 1.18118 37.2384C1.75618 38.7179 2.52553 39.9728 3.77637 41.2236C5.02721 42.4745 6.28198 43.2438 7.76156 43.8188C9.19281 44.3751 10.8283 44.7554 13.2233 44.8647C15.6231 44.9742 16.3893 45 22.5 45C28.6106 45 29.3769 44.9742 31.7766 44.8647C34.1716 44.7554 35.8071 44.3751 37.2384 43.8188C38.7179 43.2438 39.9727 42.4745 41.2235 41.2236C42.4744 39.9728 43.2437 38.718 43.8187 37.2384C44.375 35.8072 44.7553 34.1717 44.8646 31.7767C44.9741 29.3769 45 28.6107 45 22.5C45 16.3894 44.9741 15.6231 44.8646 13.2234C44.7553 10.8284 44.375 9.1929 43.8187 7.76164C43.2437 6.28207 42.4744 5.0273 41.2235 3.77646C39.9727 2.52562 38.7179 1.75627 37.2384 1.18127C35.8071 0.625019 34.1716 0.24472 31.7766 0.1354C29.3769 0.025901 28.6106 0 22.5 0ZM22.5 10.946C16.1188 10.946 10.9459 16.1189 10.9459 22.5C10.9459 28.8812 16.1188 34.0541 22.5 34.0541C28.8811 34.0541 34.054 28.8812 34.054 22.5C34.054 16.1189 28.8811 10.946 22.5 10.946ZM22.5 30.0001C18.3578 30.0001 14.9999 26.6422 14.9999 22.5C14.9999 18.3579 18.3578 15 22.5 15C26.6421 15 30 18.3579 30 22.5C30 26.6422 26.6421 30.0001 22.5 30.0001ZM37.2105 10.4895C37.2105 11.9807 36.0017 13.1895 34.5105 13.1895C33.0193 13.1895 31.8105 11.9807 31.8105 10.4895C31.8105 8.99829 33.0193 7.78951 34.5105 7.78951C36.0017 7.78951 37.2105 8.99829 37.2105 10.4895Z" fill="#8F8E8D" fill-opacity="0.5"/>
</svg>
