<svg width="13" height="30" viewBox="0 0 13 30" fill="none" xmlns="http://www.w3.org/2000/svg">
<path d="M6.5 29.25C8.29493 29.25 9.75 28.7043 9.75 28.0312C9.75 27.3582 8.29493 26.8125 6.5 26.8125C4.70507 26.8125 3.25 27.3582 3.25 28.0312C3.25 28.7043 4.70507 29.25 6.5 29.25Z" fill="#292F33"/>
<path d="M3.52539 8.71407C3.52539 8.71407 5.60133 28.4359 6.50077 28.4375C7.39939 28.4383 9.47451 8.71407 9.47451 8.71407H3.52539Z" fill="#99AAB5"/>
<path d="M6.5 13C10.0899 13 13 10.0899 13 6.5C13 2.91015 10.0899 0 6.5 0C2.91015 0 0 2.91015 0 6.5C0 10.0899 2.91015 13 6.5 13Z" fill="#DD2E44"/>
</svg>
