<svg width="106" height="18" viewBox="0 0 106 18" fill="none" xmlns="http://www.w3.org/2000/svg">
<path d="M20.4 4.344C21.408 4.344 22.296 4.52 23.064 4.872C23.832 5.224 24.424 5.712 24.84 6.336C25.256 6.944 25.464 7.64 25.464 8.424V16.512C25.464 16.592 25.432 16.664 25.368 16.728C25.32 16.776 25.256 16.8 25.176 16.8H22.968C22.888 16.8 22.816 16.776 22.752 16.728C22.704 16.664 22.68 16.592 22.68 16.512V15.744C22.68 15.696 22.664 15.672 22.632 15.672C22.6 15.656 22.568 15.664 22.536 15.696C21.752 16.56 20.616 16.992 19.128 16.992C17.928 16.992 16.936 16.688 16.152 16.08C15.384 15.472 15 14.568 15 13.368C15 12.12 15.432 11.152 16.296 10.464C17.176 9.76 18.408 9.408 19.992 9.408H22.56C22.64 9.408 22.68 9.368 22.68 9.288V8.712C22.68 8.088 22.496 7.608 22.128 7.272C21.76 6.92 21.208 6.744 20.472 6.744C19.864 6.744 19.368 6.856 18.984 7.08C18.616 7.288 18.384 7.584 18.288 7.968C18.24 8.16 18.128 8.24 17.952 8.208L15.624 7.92C15.544 7.904 15.472 7.88 15.408 7.848C15.36 7.8 15.344 7.744 15.36 7.68C15.488 6.704 16.008 5.904 16.92 5.28C17.848 4.656 19.008 4.344 20.4 4.344ZM19.824 14.784C20.608 14.784 21.28 14.576 21.84 14.16C22.4 13.744 22.68 13.216 22.68 12.576V11.448C22.68 11.368 22.64 11.328 22.56 11.328H20.544C19.696 11.328 19.024 11.488 18.528 11.808C18.048 12.128 17.808 12.584 17.808 13.176C17.808 13.688 17.992 14.088 18.36 14.376C18.744 14.648 19.232 14.784 19.824 14.784Z" fill="white"/>
<path d="M33.1311 4.392C33.6431 4.392 34.0911 4.496 34.4751 4.704C34.6031 4.768 34.6511 4.888 34.6191 5.064L34.2111 7.224C34.1951 7.416 34.0831 7.472 33.8751 7.392C33.6351 7.312 33.3551 7.272 33.0351 7.272C32.8271 7.272 32.6671 7.28 32.5551 7.296C31.8831 7.328 31.3231 7.568 30.8751 8.016C30.4271 8.448 30.2031 9.016 30.2031 9.72V16.512C30.2031 16.592 30.1711 16.664 30.1071 16.728C30.0591 16.776 29.9951 16.8 29.9151 16.8H27.7071C27.6271 16.8 27.5551 16.776 27.4911 16.728C27.4431 16.664 27.4191 16.592 27.4191 16.512V4.824C27.4191 4.744 27.4431 4.68 27.4911 4.632C27.5551 4.568 27.6271 4.536 27.7071 4.536H29.9151C29.9951 4.536 30.0591 4.568 30.1071 4.632C30.1711 4.68 30.2031 4.744 30.2031 4.824V5.904C30.2031 5.968 30.2111 6.008 30.2271 6.024C30.2591 6.024 30.2911 6 30.3231 5.952C30.9951 4.912 31.9311 4.392 33.1311 4.392Z" fill="white"/>
<path d="M40.4801 16.992C39.2481 16.992 38.1841 16.68 37.2881 16.056C36.3921 15.416 35.7681 14.56 35.4161 13.488C35.1601 12.768 35.0321 11.808 35.0321 10.608C35.0321 9.456 35.1601 8.512 35.4161 7.776C35.7521 6.72 36.3681 5.888 37.2641 5.28C38.1761 4.656 39.2481 4.344 40.4801 4.344C41.7281 4.344 42.8161 4.656 43.7441 5.28C44.6721 5.904 45.2881 6.688 45.5921 7.632C45.6721 7.888 45.7281 8.144 45.7601 8.4V8.448C45.7601 8.608 45.6721 8.704 45.4961 8.736L43.3361 9.048H43.2881C43.1441 9.048 43.0481 8.968 43.0001 8.808C43.0001 8.728 42.9921 8.664 42.9761 8.616C42.9441 8.488 42.9121 8.376 42.8801 8.28C42.7361 7.832 42.4481 7.464 42.0161 7.176C41.5841 6.888 41.0721 6.744 40.4801 6.744C39.8721 6.744 39.3521 6.904 38.9201 7.224C38.5041 7.528 38.2241 7.952 38.0801 8.496C37.9201 9.008 37.8401 9.72 37.8401 10.632C37.8401 11.512 37.9121 12.224 38.0561 12.768C38.2161 13.328 38.5041 13.776 38.9201 14.112C39.3361 14.432 39.8561 14.592 40.4801 14.592C41.0881 14.592 41.6081 14.44 42.0401 14.136C42.4881 13.816 42.7761 13.392 42.9041 12.864C42.9201 12.832 42.9281 12.792 42.9281 12.744C42.9441 12.728 42.9521 12.704 42.9521 12.672C43.0001 12.48 43.1121 12.4 43.2881 12.432L45.4481 12.768C45.5281 12.784 45.5921 12.824 45.6401 12.888C45.7041 12.936 45.7281 13.008 45.7121 13.104C45.6641 13.36 45.6241 13.544 45.5921 13.656C45.2881 14.68 44.6721 15.496 43.7441 16.104C42.8161 16.696 41.7281 16.992 40.4801 16.992Z" fill="white"/>
<path d="M52.3689 16.992C51.1049 16.992 50.0169 16.672 49.1049 16.032C48.2089 15.392 47.5769 14.504 47.2089 13.368C46.9369 12.504 46.8009 11.592 46.8009 10.632C46.8009 9.608 46.9289 8.696 47.1849 7.896C47.5529 6.776 48.1929 5.904 49.1049 5.28C50.0169 4.656 51.1129 4.344 52.3929 4.344C53.6089 4.344 54.6569 4.656 55.5369 5.28C56.4329 5.904 57.0649 6.768 57.4329 7.872C57.7209 8.64 57.8649 9.552 57.8649 10.608C57.8649 11.616 57.7289 12.528 57.4569 13.344C57.0889 14.48 56.4569 15.376 55.5609 16.032C54.6649 16.672 53.6009 16.992 52.3689 16.992ZM52.3689 14.592C52.9609 14.592 53.4649 14.424 53.8809 14.088C54.3129 13.752 54.6249 13.28 54.8169 12.672C54.9769 12.144 55.0569 11.472 55.0569 10.656C55.0569 9.792 54.9769 9.12 54.8169 8.64C54.6409 8.032 54.3369 7.568 53.9049 7.248C53.4729 6.912 52.9449 6.744 52.3209 6.744C51.7289 6.744 51.2169 6.912 50.7849 7.248C50.3529 7.568 50.0409 8.032 49.8489 8.64C49.6889 9.2 49.6089 9.872 49.6089 10.656C49.6089 11.44 49.6889 12.112 49.8489 12.672C50.0249 13.28 50.3289 13.752 50.7609 14.088C51.2089 14.424 51.7449 14.592 52.3689 14.592Z" fill="white"/>
<path d="M67.2649 0.288001C67.2649 0.208001 67.2889 0.144001 67.3369 0.0960002C67.4009 0.0320001 67.4729 0 67.5529 0H69.7609C69.8409 0 69.9049 0.0320001 69.9529 0.0960002C70.0169 0.144001 70.0489 0.208001 70.0489 0.288001V16.512C70.0489 16.592 70.0169 16.664 69.9529 16.728C69.9049 16.776 69.8409 16.8 69.7609 16.8H67.5529C67.4729 16.8 67.4009 16.776 67.3369 16.728C67.2889 16.664 67.2649 16.592 67.2649 16.512V15.792C67.2649 15.744 67.2489 15.712 67.2169 15.696C67.1849 15.68 67.1529 15.696 67.1209 15.744C66.4169 16.576 65.4969 16.992 64.3609 16.992C63.2249 16.992 62.2649 16.696 61.4809 16.104C60.6969 15.512 60.1289 14.688 59.7769 13.632C59.4889 12.736 59.3449 11.736 59.3449 10.632C59.3449 9.496 59.4809 8.52 59.7529 7.704C60.1049 6.648 60.6729 5.824 61.4569 5.232C62.2409 4.64 63.2249 4.344 64.4089 4.344C65.5129 4.344 66.4169 4.744 67.1209 5.544C67.1529 5.576 67.1849 5.592 67.2169 5.592C67.2489 5.576 67.2649 5.544 67.2649 5.496V0.288001ZM66.6889 13.44C67.0569 12.784 67.2409 11.856 67.2409 10.656C67.2409 9.408 67.0409 8.456 66.6409 7.8C66.2089 7.096 65.6009 6.744 64.8169 6.744C64.0009 6.744 63.3609 7.08 62.8969 7.752C62.4169 8.456 62.1769 9.432 62.1769 10.68C62.1769 11.8 62.3689 12.72 62.7529 13.44C63.2009 14.208 63.8809 14.592 64.7929 14.592C65.6089 14.592 66.2409 14.208 66.6889 13.44Z" fill="white"/>
<path d="M82.5671 9.288C82.6311 9.688 82.6631 10.136 82.6631 10.632L82.6391 11.376C82.6391 11.568 82.5431 11.664 82.3511 11.664H74.8391C74.7591 11.664 74.7191 11.704 74.7191 11.784C74.7671 12.312 74.8391 12.672 74.9351 12.864C75.3191 14.016 76.2551 14.6 77.7431 14.616C78.8311 14.616 79.6951 14.168 80.3351 13.272C80.3991 13.176 80.4791 13.128 80.5751 13.128C80.6391 13.128 80.6951 13.152 80.7431 13.2L82.2311 14.424C82.3751 14.536 82.3991 14.664 82.3031 14.808C81.8071 15.512 81.1431 16.056 80.3111 16.44C79.4951 16.824 78.5831 17.016 77.5751 17.016C76.3271 17.016 75.2631 16.736 74.3831 16.176C73.5191 15.616 72.8871 14.832 72.4871 13.824C72.1191 12.96 71.9351 11.76 71.9351 10.224C71.9351 9.296 72.0311 8.544 72.2231 7.968C72.5431 6.848 73.1431 5.968 74.0231 5.328C74.9191 4.672 75.9911 4.344 77.2391 4.344C80.3911 4.344 82.1671 5.992 82.5671 9.288ZM77.2391 6.744C76.6471 6.744 76.1511 6.896 75.7511 7.2C75.3671 7.488 75.0951 7.896 74.9351 8.424C74.8391 8.696 74.7751 9.048 74.7431 9.48C74.7111 9.56 74.7431 9.6 74.8391 9.6H79.7111C79.7911 9.6 79.8311 9.56 79.8311 9.48C79.7991 9.08 79.7511 8.776 79.6871 8.568C79.5431 7.992 79.2551 7.544 78.8231 7.224C78.4071 6.904 77.8791 6.744 77.2391 6.744Z" fill="white"/>
<path d="M10.224 15.72C10.224 15.832 10.192 15.912 10.128 15.96C10.064 15.992 9.984 15.984 9.888 15.936L0.216 11.568C0.072 11.488 0 11.376 0 11.232V9.288C0 9.128 0.072 9.016 0.216 8.952L9.888 4.584C9.952 4.552 10 4.536 10.032 4.536C10.16 4.536 10.224 4.624 10.224 4.8V6.888C10.224 7.032 10.152 7.144 10.008 7.224L3.024 10.176C2.928 10.224 2.928 10.272 3.024 10.32L10.008 13.296C10.152 13.36 10.224 13.472 10.224 13.632V15.72Z" fill="url(#paint0_linear_262_15)"/>
<path d="M86.12 16.8C86.024 16.8 85.952 16.776 85.904 16.728C85.856 16.664 85.848 16.576 85.88 16.464L91.76 0.24C91.808 0.0799999 91.912 0 92.072 0H94.256C94.352 0 94.424 0.0320001 94.472 0.0960002C94.52 0.144001 94.528 0.224 94.496 0.336L88.616 16.56C88.568 16.72 88.464 16.8 88.304 16.8H86.12Z" fill="url(#paint1_linear_262_15)"/>
<path d="M95.6304 15.936C95.5664 15.968 95.5184 15.984 95.4864 15.984C95.3584 15.984 95.2944 15.896 95.2944 15.72V13.632C95.2944 13.472 95.3664 13.36 95.5104 13.296L102.494 10.32C102.59 10.272 102.59 10.224 102.494 10.176L95.5104 7.224C95.3664 7.144 95.2944 7.032 95.2944 6.888V4.8C95.2944 4.688 95.3264 4.616 95.3904 4.584C95.4544 4.536 95.5344 4.536 95.6304 4.584L105.302 8.952C105.446 9.016 105.518 9.128 105.518 9.288V11.232C105.518 11.376 105.446 11.488 105.302 11.568L95.6304 15.936Z" fill="url(#paint2_linear_262_15)"/>
<defs>
<linearGradient id="paint0_linear_262_15" x1="52.7592" y1="0" x2="52.7592" y2="17.016" gradientUnits="userSpaceOnUse">
<stop stop-color="#FCB526"/>
<stop offset="1" stop-color="#FF850A"/>
</linearGradient>
<linearGradient id="paint1_linear_262_15" x1="52.7592" y1="0" x2="52.7592" y2="17.016" gradientUnits="userSpaceOnUse">
<stop stop-color="#FCB526"/>
<stop offset="1" stop-color="#FF850A"/>
</linearGradient>
<linearGradient id="paint2_linear_262_15" x1="52.7592" y1="0" x2="52.7592" y2="17.016" gradientUnits="userSpaceOnUse">
<stop stop-color="#FCB526"/>
<stop offset="1" stop-color="#FF850A"/>
</linearGradient>
</defs>
</svg>
